<svg width="23" height="23" viewBox="0 0 23 23" fill="none" xmlns="http://www.w3.org/2000/svg">
<path d="M17.8467 12.6522C15.4288 12.5796 13.448 14.6994 13.448 17.3167H12.5977C12.384 17.3167 12.2795 17.5965 12.4315 17.7572L13.7568 19.2084C13.8518 19.312 13.999 19.312 14.094 19.2084L15.4193 17.7572C15.4521 17.7207 15.4743 17.6743 15.4831 17.6241C15.4918 17.5738 15.4867 17.5218 15.4684 17.4747C15.4501 17.4276 15.4195 17.3875 15.3803 17.3593C15.3411 17.3312 15.2952 17.3164 15.2483 17.3167H14.398C14.398 15.2954 15.9086 13.6628 17.7707 13.6887C19.5377 13.7147 21.0245 15.3369 21.0483 17.2648C21.072 19.2913 19.5757 20.9446 17.7231 20.9446C16.9584 20.9446 16.2506 20.6595 15.6901 20.1775C15.5991 20.0993 15.4849 20.0603 15.3693 20.068C15.2537 20.0756 15.1447 20.1294 15.0631 20.219C14.8636 20.4367 14.8778 20.8046 15.1011 20.9912C15.8474 21.6352 16.7717 21.9841 17.7231 21.9811C20.122 21.9811 22.0648 19.8199 21.9983 17.1819C21.9365 14.7512 20.0745 12.7196 17.8467 12.6522ZM17.6044 15.2436C17.4096 15.2436 17.2481 15.4198 17.2481 15.6323V17.5395C17.2481 17.7209 17.3384 17.8919 17.4809 17.9852L18.9629 18.944C19.1339 19.0529 19.3525 18.9907 19.4522 18.8093C19.552 18.6227 19.495 18.3843 19.3287 18.2755L17.9607 17.3892V15.6271C17.9607 15.4198 17.7992 15.2436 17.6044 15.2436Z" fill="#2A5AAE" stroke="#2A5AAE" stroke-width="0.375"/>
<path fill-rule="evenodd" clip-rule="evenodd" d="M3.02683 17.6V9.9H5.04471V17.6H3.02683ZM9.08049 17.6V9.9H11.0984V17.6H9.08049ZM0 22V19.8H11.5944C11.8398 20.6132 12.2241 21.3576 12.7167 22H0ZM15.1341 11.4855C15.762 11.209 16.4413 11.0422 17.152 11.007V9.9H15.1341V11.4855ZM0 7.7V5.5L10.0894 0L20.1789 5.5V7.7H0ZM15.6891 5.5L10.0894 2.475L4.4898 5.5H15.6891Z" fill="#2A5AAE"/>
</svg>
