<svg width="26" height="31" viewBox="0 0 26 31" fill="none" xmlns="http://www.w3.org/2000/svg">
<path d="M3.25 31C2.35625 31 1.59142 30.7112 0.9555 30.1335C0.319583 29.5558 0.00108333 28.8605 0 28.0476V13.2857C0 12.4738 0.3185 11.779 0.9555 11.2013C1.5925 10.6237 2.35733 10.3343 3.25 10.3333H4.875V7.38095C4.875 5.33889 5.66746 3.59846 7.25237 2.15967C8.83729 0.720873 10.7532 0.000984127 13 0C15.2479 0 17.1643 0.719889 18.7492 2.15967C20.3342 3.59944 21.1261 5.33987 21.125 7.38095V10.3333H22.75C23.6437 10.3333 24.4091 10.6227 25.0461 11.2013C25.6831 11.78 26.0011 12.4748 26 13.2857V28.0476C26 28.8595 25.682 29.5548 25.0461 30.1335C24.4102 30.7121 23.6448 31.001 22.75 31H3.25ZM13 23.619C13.8937 23.619 14.6591 23.3302 15.2961 22.7525C15.9331 22.1748 16.2511 21.4796 16.25 20.6667C16.25 19.8548 15.932 19.16 15.2961 18.5823C14.6602 18.0046 13.8948 17.7153 13 17.7143C12.1062 17.7143 11.3414 18.0036 10.7055 18.5823C10.0696 19.161 9.75108 19.8557 9.75 20.6667C9.75 21.4786 10.0685 22.1739 10.7055 22.7525C11.3425 23.3312 12.1073 23.62 13 23.619ZM8.125 10.3333H17.875V7.38095C17.875 6.15079 17.401 5.10516 16.4531 4.24405C15.5052 3.38294 14.3542 2.95238 13 2.95238C11.6458 2.95238 10.4948 3.38294 9.54687 4.24405C8.59896 5.10516 8.125 6.15079 8.125 7.38095V10.3333Z" fill="#2A5AAE"/>
</svg>
