<svg width="29" height="25" viewBox="0 0 29 25" fill="none" xmlns="http://www.w3.org/2000/svg">
<path d="M8.30324 9.55926C9.40917 10.4579 10.1139 11.6775 10.3134 13.1079C10.4453 14.5482 10.1447 15.963 9.23406 17.1039C8.37664 18.1233 7.25086 18.8437 5.93141 19.0337C4.38366 19.1497 3.05455 18.863 1.80342 17.882C0.830238 17.0219 0.150758 15.8188 0.0115011 14.5027C0.000994511 14.2723 -0.00157824 14.0438 0.000841852 13.8131C0.00144523 13.7317 0.0020486 13.6503 0.00267026 13.5665C0.0341538 12.1143 0.619565 10.8563 1.64843 9.84821C3.53315 8.21125 6.28864 8.07005 8.30324 9.55926ZM4.84822 10.8363C4.61473 11.1316 4.60103 11.3443 4.60936 11.7076C4.60935 11.7674 4.60935 11.8271 4.60935 11.8886C4.60977 12.0144 4.61117 12.1402 4.61348 12.266C4.61682 12.4579 4.61675 12.6496 4.6162 12.8415C4.61704 12.9642 4.61807 13.0868 4.61932 13.2094C4.61933 13.2664 4.61935 13.3234 4.61936 13.3821C4.6276 13.7323 4.65872 13.9825 4.89568 14.2444C5.14535 14.3045 5.14535 14.3045 5.43346 14.2926C5.48561 14.2926 5.53776 14.2926 5.59148 14.2926C5.70158 14.2921 5.81169 14.2907 5.92176 14.2883C6.09021 14.285 6.2584 14.285 6.42687 14.2856C6.95981 14.3149 6.95981 14.3149 7.43708 14.1329C7.5635 13.9427 7.55791 13.8195 7.52485 13.595C7.39362 13.4152 7.3249 13.3574 7.10511 13.3238C7.03627 13.3251 6.96743 13.3263 6.8965 13.3276C6.78442 13.3288 6.78442 13.3288 6.67009 13.33C6.59229 13.3321 6.51449 13.3341 6.43434 13.3362C6.35562 13.3373 6.2769 13.3384 6.19579 13.3395C6.00139 13.3424 5.80708 13.3464 5.61272 13.3514C5.61398 13.2814 5.61523 13.2114 5.61652 13.1392C5.62059 12.8791 5.62359 12.6191 5.62585 12.359C5.62705 12.2465 5.62869 12.134 5.63075 12.0215C5.63366 11.8597 5.63488 11.6979 5.63607 11.5361C5.63732 11.4387 5.63857 11.3414 5.63986 11.2411C5.63346 10.9987 5.63346 10.9987 5.50109 10.847C5.22505 10.6451 5.12977 10.6135 4.84822 10.8363Z" fill="#2A5AAE"/>
<path d="M21.1488 8.88672C21.4661 9.01466 21.6649 9.24135 21.8916 9.49109C21.9744 9.57943 22.0572 9.66769 22.1401 9.75586C22.2697 9.89437 22.3986 10.0333 22.526 10.1738C22.6499 10.3099 22.7759 10.4434 22.9025 10.5768C22.9396 10.6189 22.9767 10.661 23.015 10.7044C23.1414 10.8425 23.1414 10.8425 23.3796 10.9973C23.5372 10.9927 23.5372 10.9927 23.7054 10.9652C24.035 10.9468 24.198 11.0482 24.4439 11.2685C24.6671 11.4837 24.8824 11.706 25.0966 11.9305C25.1911 12.0271 25.2858 12.1237 25.3806 12.2201C25.5786 12.4222 25.7754 12.6256 25.9713 12.83C26.2213 13.0906 26.4737 13.3488 26.727 13.6061C26.9227 13.8053 27.1173 14.0055 27.3116 14.206C27.4043 14.3015 27.4972 14.3967 27.5903 14.4917C28.192 15.107 28.7275 15.6889 28.8001 16.5955C28.7898 17.1982 28.6024 17.7545 28.1941 18.1943C27.6413 18.7083 27.1652 18.8409 26.423 18.8167C25.0633 18.6746 23.8995 16.9785 22.9976 16.0574C22.8035 15.8592 22.6091 15.6614 22.4146 15.4637C22.2279 15.2738 22.0414 15.0836 21.8549 14.8934C21.7851 14.8224 21.7153 14.7515 21.6434 14.6784C21.5795 14.613 21.5156 14.5477 21.4498 14.4803C21.3934 14.4228 21.337 14.3653 21.2789 14.306C21.1488 14.1631 21.1488 14.1631 21.0691 14.0008C21.075 13.8866 21.0831 13.7725 21.0924 13.6586C21.0949 13.3677 21.0664 13.2151 20.8789 12.9935C20.7931 12.9061 20.7053 12.8208 20.616 12.7371C20.57 12.6913 20.524 12.6455 20.4766 12.5983C20.3305 12.4535 20.182 12.3114 20.0334 12.1692C19.9334 12.0711 19.8336 11.9727 19.734 11.8742C19.4903 11.634 19.2446 11.3962 18.9976 11.1596C19.4155 10.6429 19.8757 10.1745 20.3421 9.70354C20.4205 9.62403 20.499 9.54449 20.5774 9.46493C20.7676 9.27201 20.9581 9.07928 21.1488 8.88672Z" fill="#2A5AAE"/>
<path d="M17.8822 3.3667C18.1602 3.48808 18.3391 3.65016 18.5515 3.8679C18.6201 3.93777 18.6887 4.00764 18.7593 4.07963C18.8326 4.15514 18.9059 4.23066 18.9814 4.30846C19.0577 4.38652 19.1341 4.46455 19.2105 4.54254C19.4109 4.74743 19.6109 4.9528 19.8109 5.15827C20.0151 5.36806 20.2198 5.57737 20.4245 5.78673C20.8257 6.19723 21.2264 6.60824 21.6267 7.01958C21.5002 7.33329 21.3033 7.53103 21.069 7.76863C21.0286 7.80985 20.9881 7.85106 20.9465 7.89353C20.8132 8.02919 20.6794 8.16428 20.5456 8.29936C20.4529 8.3935 20.3602 8.48767 20.2676 8.58188C20.0241 8.82939 19.7801 9.0764 19.536 9.32332C19.2868 9.57551 19.0381 9.82816 18.7894 10.0808C18.3015 10.5761 17.8132 11.0709 17.3245 11.5654C17.0464 11.444 16.8676 11.2819 16.6551 11.0642C16.5866 10.9943 16.518 10.9244 16.4473 10.8525C16.3741 10.7769 16.3008 10.7014 16.2252 10.6236C16.1489 10.5456 16.0726 10.4675 15.9962 10.3895C15.7957 10.1847 15.5957 9.97929 15.3958 9.77381C15.1915 9.56403 14.9868 9.35471 14.7821 9.14535C14.3809 8.73485 13.9803 8.32384 13.5799 7.91251C13.7064 7.59879 13.9033 7.40106 14.1376 7.16346C14.1781 7.12224 14.2185 7.08102 14.2602 7.03856C14.3934 6.90289 14.5272 6.76781 14.6611 6.63273C14.7538 6.53859 14.8464 6.44442 14.939 6.35021C15.1826 6.1027 15.4266 5.85568 15.6707 5.60877C15.9198 5.35658 16.1685 5.10393 16.4173 4.85132C16.9051 4.35599 17.3935 3.86118 17.8822 3.3667Z" fill="#2A5AAE"/>
<path d="M5.91951 21.004C6.01132 21.0036 6.10313 21.0031 6.19772 21.0026C6.49938 21.0017 6.8009 21.0043 7.10254 21.0071C7.31294 21.0073 7.52333 21.0075 7.73373 21.0074C8.1738 21.0076 8.61384 21.0097 9.0539 21.0131C9.56183 21.0169 10.0697 21.0182 10.5777 21.018C11.0678 21.0178 11.5579 21.0191 12.048 21.0211C12.2559 21.0219 12.4639 21.0224 12.6719 21.0225C12.9623 21.0231 13.2527 21.0252 13.5431 21.0278C13.6289 21.0277 13.7147 21.0276 13.8031 21.0275C14.315 21.0342 14.6634 21.095 15.08 21.4205C15.5148 21.8988 15.4503 22.1067 15.5717 22.849C11.7331 22.849 7.89454 22.849 3.93964 22.849C3.93964 22.2858 3.969 22.0087 4.25832 21.5502C4.76229 21.0602 5.24626 20.9932 5.91951 21.004Z" fill="#2A5AAE"/>
<path d="M19.4756 0.444777C20.0801 0.882436 20.5904 1.48762 21.1136 2.02167C21.2089 2.11876 21.3043 2.21583 21.3996 2.3129C21.5982 2.51506 21.7965 2.71736 21.9948 2.91977C22.2492 3.17945 22.504 3.43876 22.7589 3.69797C22.9553 3.89775 23.1514 4.09772 23.3476 4.29775C23.4415 4.39352 23.5355 4.48922 23.6296 4.58486C23.7604 4.71793 23.8909 4.85126 24.0214 4.98466C24.0957 5.06046 24.1701 5.13625 24.2466 5.21435C24.4321 5.41466 24.4847 5.50397 24.5348 5.77189C24.474 6.18996 24.2257 6.40611 23.9372 6.69526C23.8954 6.73869 23.8536 6.78211 23.8106 6.82685C23.6194 7.00923 23.4904 7.09719 23.2286 7.13033C22.924 7.09439 22.8311 7.01207 22.613 6.79637C22.5442 6.7293 22.4754 6.66222 22.4045 6.59311C22.2956 6.48295 22.2956 6.48295 22.1845 6.37056C22.1099 6.29653 22.0353 6.2225 21.9585 6.14622C21.7115 5.90017 21.4674 5.65128 21.2234 5.40217C21.1338 5.31097 21.0443 5.21977 20.9547 5.1286C20.7687 4.93921 20.5828 4.74969 20.3971 4.56006C20.1591 4.31713 19.9208 4.07457 19.6823 3.83212C19.4981 3.64466 19.314 3.45701 19.13 3.2693C19.0421 3.17972 18.9542 3.0902 18.8662 3.00075C18.7438 2.87626 18.6217 2.75153 18.4996 2.62672C18.4302 2.55591 18.3608 2.48511 18.2892 2.41217C18.0883 2.19515 17.9708 2.0541 17.9307 1.75468C17.9706 1.42877 18.079 1.31373 18.3005 1.07896C18.3947 0.976777 18.3947 0.976777 18.4909 0.872532C19.0187 0.355255 19.0187 0.355255 19.4756 0.444777Z" fill="#2A5AAE"/>
<path d="M12.2256 7.83151C12.8294 8.27119 13.34 8.87393 13.8635 9.4084C13.9588 9.50549 14.0542 9.60257 14.1496 9.69964C14.3481 9.90179 14.5465 10.1041 14.7448 10.3065C14.9992 10.5662 15.254 10.8255 15.5088 11.0847C15.7052 11.2845 15.9014 11.4845 16.0975 11.6845C16.1914 11.7803 16.2854 11.876 16.3795 11.9716C16.5103 12.1047 16.6409 12.238 16.7713 12.3714C16.8457 12.4472 16.92 12.523 16.9966 12.6011C17.1821 12.8014 17.2346 12.8907 17.2847 13.1586C17.2239 13.5772 16.9753 13.792 16.6872 14.082C16.6463 14.1264 16.6054 14.1707 16.5633 14.2164C16.3538 14.4241 16.2418 14.4882 15.9471 14.4856C15.5875 14.3896 15.3955 14.2141 15.1433 13.9507C15.0722 13.8794 15.0722 13.8794 14.9998 13.8066C14.8442 13.6499 14.6904 13.4914 14.5367 13.3327C14.4288 13.2229 14.3208 13.1132 14.2127 13.0035C13.9868 12.7737 13.7618 12.543 13.5373 12.3117C13.2498 12.0155 12.9603 11.7213 12.6701 11.4277C12.447 11.2015 12.2248 10.9743 12.0029 10.7468C11.8965 10.6379 11.7898 10.5293 11.6829 10.4211C11.5335 10.2695 11.3855 10.1168 11.2378 9.96357C11.1935 9.91915 11.1492 9.87472 11.1036 9.82895C10.8415 9.55364 10.7205 9.35515 10.7118 8.96797C10.9768 8.40349 11.5678 7.69292 12.2256 7.83151Z" fill="#2A5AAE"/>
<path d="M3.98523 23.7822C4.03675 23.7817 4.08827 23.7813 4.14135 23.7808C4.31336 23.7797 4.48528 23.7809 4.65729 23.7821C4.78085 23.7818 4.90441 23.7814 5.02797 23.7808C5.36312 23.7797 5.69824 23.7806 6.03338 23.7819C6.38413 23.783 6.73487 23.7825 7.08562 23.7822C7.67453 23.782 8.26344 23.7831 8.85235 23.785C9.53334 23.7871 10.2143 23.7873 10.8953 23.7863C11.5504 23.7854 12.2054 23.7859 12.8605 23.7871C13.1393 23.7876 13.4181 23.7876 13.6969 23.7872C14.0251 23.7868 14.3533 23.7876 14.6816 23.7894C14.8021 23.7898 14.9226 23.7898 15.0431 23.7894C15.2075 23.789 15.3718 23.79 15.5362 23.7914C15.6282 23.7916 15.7202 23.7918 15.815 23.792C16.0745 23.8261 16.1833 23.8813 16.3684 24.0664C16.4431 24.2592 16.4431 24.2592 16.4481 24.4722C16.3571 24.6576 16.2736 24.8124 16.1294 24.9593C15.9658 24.9679 15.8018 24.9706 15.638 24.9712C15.5861 24.9715 15.5342 24.9718 15.4807 24.9721C15.3056 24.973 15.1304 24.9734 14.9552 24.9737C14.8301 24.9742 14.7051 24.9747 14.58 24.9753C14.2392 24.9767 13.8985 24.9775 13.5577 24.9782C13.345 24.9786 13.1323 24.9791 12.9196 24.9796C12.2545 24.9812 11.5894 24.9823 10.9244 24.983C10.1557 24.9838 9.38714 24.9859 8.61853 24.9892C8.02507 24.9917 7.43161 24.9929 6.83814 24.9931C6.4834 24.9933 6.12868 24.9941 5.77394 24.9961C5.44023 24.998 5.10655 24.9983 4.77284 24.9975C4.65028 24.9975 4.52772 24.998 4.40516 24.9991C4.23794 25.0005 4.07085 25 3.90363 24.9989C3.76322 24.9992 3.76322 24.9992 3.61997 24.9995C3.33114 24.9507 3.23755 24.8703 3.06321 24.6346C3.0184 24.3911 3.0184 24.3911 3.06321 24.1475C3.36149 23.8391 3.56611 23.7822 3.98523 23.7822Z" fill="#2A5AAE"/>
</svg>
