<svg width="31" height="23" viewBox="0 0 31 23" fill="none" xmlns="http://www.w3.org/2000/svg">
<rect x="0.244385" y="2.65771" width="18.3324" height="19.4012" rx="1.61947" fill="#2A5AAE"/>
<path d="M25.225 14.5755L24.6604 13.9877L24.6512 13.5959C25.6113 13.5677 26.5426 13.3265 27.3783 12.8898C28.2141 12.453 28.9336 11.8314 29.4855 11.0694C31.1156 8.8311 31.0274 5.59672 29.2666 3.28236C28.6511 2.46532 27.8641 1.79088 26.9659 1.31067C26.0677 0.830459 25.082 0.557194 24.0844 0.51179C23.0867 0.466385 22.1035 0.650043 21.2099 1.04871C20.3163 1.44738 19.5361 2.05048 18.929 2.81189C17.1918 4.96704 17.1378 8.19495 18.7924 10.5827C19.3526 11.3953 20.0791 12.0828 20.9199 12.5958C21.7606 13.1089 22.6949 13.4349 23.6558 13.5506L23.6508 13.9417L23.0921 14.4784L23.1241 20.5279C23.1272 21.1115 23.6061 21.61 24.1891 21.6366C24.7721 21.6631 25.2459 21.2079 25.2428 20.6243L25.225 14.5755ZM20.9365 10.1111C19.1568 8.25838 19.1417 5.39732 20.9026 3.70574C22.6636 2.01417 25.5217 2.14424 27.3014 3.99696C29.0812 5.84968 29.0963 8.71074 27.3353 10.4023C25.5744 12.0939 22.7162 11.9638 20.9365 10.1111Z" fill="#2A5AAE"/>
<rect x="2.68988" y="6.25293" width="14.0084" height="2.04053" rx="1.02026" fill="white"/>
<rect x="2.68988" y="11.6616" width="14.0084" height="2.04053" rx="1.02026" fill="white"/>
<rect x="2.68988" y="17.0547" width="14.0084" height="2.04053" rx="1.02026" fill="white"/>
</svg>
