<svg width="829" height="1004" viewBox="0 0 829 1004" fill="none" xmlns="http://www.w3.org/2000/svg">
<path d="M389.617 64.8296H439.357V174.967H389.617V64.8296Z" fill="#4E5C66"/>
<path d="M455.984 115.645H373.084V19.0623C373.084 -6.3541 455.984 -6.3541 455.984 19.0623V115.645Z" fill="#FFA71E"/>
<path d="M61.9531 269.59L111.179 219.266L160.422 269.573L111.212 319.898L61.9531 269.59Z" fill="#4E5C66"/>
<path d="M142.611 217.315L59.7106 302.037L8.31256 249.509C-1.63544 239.343 -1.63544 222.399 8.31256 212.232L54.7366 164.788C64.6846 154.621 81.2646 154.621 91.2126 164.788L142.611 217.315Z" fill="#FFA71E"/>
<path d="M668.875 269.931L718.118 219.607L767.36 269.931L718.118 320.256L668.875 269.931Z" fill="#4E5C66"/>
<path d="M769.33 302.037L686.43 217.315L737.828 164.788C747.776 154.621 764.356 154.621 774.304 164.788L820.728 212.232C830.676 222.399 830.676 239.343 820.728 249.509L769.33 302.037Z" fill="#FFA71E"/>
<path d="M414.5 1003.52C643.422 1003.52 829 813.87 829 579.918C829 345.966 643.422 156.311 414.5 156.311C185.578 156.311 0 345.966 0 579.918C0 813.87 185.578 1003.52 414.5 1003.52Z" fill="#FFA71E"/>
<path d="M414.495 947.595C613.199 947.595 774.281 782.975 774.281 579.905C774.281 376.835 613.199 212.214 414.495 212.214C215.791 212.214 54.709 376.835 54.709 579.905C54.709 782.975 215.791 947.595 414.495 947.595Z" fill="#D2D3D5"/>
<path d="M414.518 918.81C597.656 918.81 746.118 767.086 746.118 579.924C746.118 392.763 597.656 241.039 414.518 241.039C231.38 241.039 82.918 392.763 82.918 579.924C82.918 767.086 231.38 918.81 414.518 918.81Z" fill="white"/>
<path d="M746.1 579.924C746.1 673.118 709.624 757.839 649.936 818.839L414.5 579.924V241.039C596.88 241.039 746.1 393.537 746.1 579.924Z" fill="white"/>
<path d="M601.829 383.379L402.704 558.006L436.155 591.595L601.829 383.379ZM111.199 594.514L110.995 570.793L203.84 569.959L204.044 593.68L111.199 594.514ZM625.159 589.898L624.955 566.177L717.8 565.343L718.004 589.064L625.159 589.898ZM405.56 890.101L404.744 795.217L427.956 795.008L428.771 889.892L405.56 890.101ZM401.043 364.849L400.227 269.964L423.439 269.756L424.255 364.64L401.043 364.849ZM158.337 748.662L146.555 728.214L186.556 704.132L198.338 724.58L158.337 748.662ZM275.332 856.906L255.136 845.226L277.994 803.929L298.207 815.609L275.332 856.906ZM559.647 853.793L536.05 812.931L556.042 800.89L579.639 841.735L559.647 853.793ZM674.16 742.775L633.751 719.415L645.18 698.776L685.589 722.135L674.16 742.775ZM641.025 456.602L629.243 436.171L669.244 412.088L681.026 432.503L641.025 456.602ZM552.355 356.712L532.142 345.032L555.016 303.735L575.229 315.415L552.355 356.712ZM273.799 360.468L250.235 319.605L270.227 307.564L293.791 348.426L273.799 360.468ZM183.836 461.081L143.443 437.704L154.872 417.064L195.281 440.424L183.836 461.081Z" fill="#3E4347"/>
<path d="M414.481 627.351C440.12 627.351 460.905 606.11 460.905 579.907C460.905 553.705 440.12 532.463 414.481 532.463C388.841 532.463 368.057 553.705 368.057 579.907C368.057 606.11 388.841 627.351 414.481 627.351Z" fill="#3E4347"/>
</svg>
