<svg width="48" height="60" viewBox="0 0 48 60" fill="none" xmlns="http://www.w3.org/2000/svg">
<path d="M42.3347 20.833L43.5987 19.579L44.5827 20.555L47.5587 17.603C47.6991 17.464 47.8106 17.2985 47.8867 17.1161C47.9628 16.9338 48.002 16.7381 48.002 16.5405C48.002 16.3429 47.9628 16.1472 47.8867 15.9649C47.8106 15.7825 47.6991 15.617 47.5587 15.478L44.8797 12.822C44.5947 12.54 44.2101 12.3819 43.8092 12.3819C43.4083 12.3819 43.0237 12.54 42.7387 12.822L39.7617 15.774L40.7457 16.75L39.4817 18.003C35.5207 14.6784 30.5916 12.7226 25.4287 12.427V11.245C27.9167 10.614 29.7607 8.381 29.7607 5.715C29.7627 2.558 27.1837 0 24.0027 0C20.8207 0 18.2417 2.558 18.2417 5.714C18.2417 8.381 20.0847 10.612 22.5737 11.244V12.426C17.4107 12.7217 12.4815 14.6779 8.5207 18.003L7.2567 16.749L8.2387 15.773L5.2627 12.821C4.97762 12.5393 4.59299 12.3813 4.1922 12.3813C3.79141 12.3813 3.40678 12.5393 3.1217 12.821L0.4437 15.477C0.303138 15.6159 0.191544 15.7814 0.115381 15.9638C0.0392177 16.1462 0 16.3419 0 16.5395C0 16.7371 0.0392177 16.9328 0.115381 17.1152C0.191544 17.2976 0.303138 17.4631 0.4437 17.602L3.4207 20.556L4.4037 19.579L5.6667 20.833C2.1367 24.98 0.00270033 30.337 0.00270033 36.19C0.00270033 49.342 10.7487 60 24.0027 60C37.2567 60 48.0027 49.342 48.0027 36.19C48.0027 30.337 45.8677 24.979 42.3347 20.833ZM21.5887 4.712V9.006C21.0639 8.63197 20.6359 8.13823 20.3401 7.56572C20.0443 6.99321 19.8892 6.35842 19.8877 5.714C19.8877 3.46 21.7307 1.633 24.0027 1.633C26.2737 1.633 28.1157 3.46 28.1157 5.714C28.1157 7.071 27.4417 8.264 26.4147 9.006L26.4157 4.712C26.4157 3.257 21.5897 3.257 21.5887 4.712ZM24.0027 56.826C12.5157 56.826 3.2027 47.588 3.2027 36.19C3.2027 24.794 12.5157 15.556 24.0027 15.556C35.4887 15.556 44.8017 24.795 44.8017 36.19C44.8017 47.588 35.4887 56.826 24.0027 56.826Z" fill="black"/>
<path d="M24.0029 17.1431V18.7311H23.3259V24.1031H24.0029V33.5031C22.5069 33.5031 21.2939 34.7051 21.2939 36.1901C21.2939 37.6751 22.5069 38.8781 24.0029 38.8781C24.3189 38.8781 24.6199 38.8141 24.9029 38.7141L35.0249 47.0211L35.0239 47.0191L37.6429 49.5941C41.0799 46.1531 43.2019 41.4171 43.2019 36.1901C43.2019 25.6721 34.6059 17.1431 24.0029 17.1431ZM37.5559 46.8281L26.7079 36.1681C26.703 35.4653 26.4209 34.7929 25.9229 34.2971V19.1531C28.1119 19.3941 30.1789 20.0471 32.0459 21.0261L30.8609 23.0611L32.0329 23.7321L33.2179 21.7001C35.3879 23.063 37.2288 24.8902 38.6079 27.0501L36.5609 28.2231L37.2379 29.3861L39.2829 28.2171C40.4821 30.4726 41.1552 32.9704 41.2519 35.5231H36.1879V36.8631H41.2549C41.1614 39.4176 40.4907 41.9178 39.2929 44.1761L37.2379 42.9981L36.5609 44.1611L38.6119 45.3371C38.2839 45.8471 37.9399 46.3491 37.5559 46.8281ZM23.3259 48.2791H24.6789V53.6511H23.3259V48.2791ZM6.40186 35.5211H11.8179V36.8611H6.40186V35.5211ZM14.6159 21.4061L15.9699 23.7311L17.1429 23.0601L15.7889 20.7351L14.6159 21.4061ZM11.4439 28.2221L9.09886 26.8791L8.42186 28.0431L10.7669 29.3871L11.4439 28.2221ZM8.42186 44.3401L9.09886 45.5041L11.4439 44.1591L10.7669 42.9961L8.42186 44.3401ZM14.6149 50.9771L15.7879 51.6481L17.1419 49.3211L15.9699 48.6491L14.6149 50.9771ZM30.8619 49.3211L32.2159 51.6481L33.3899 50.9771L32.0339 48.6491L30.8619 49.3211Z" fill="black"/>
</svg>
