<svg width="24" height="26" viewBox="0 0 24 26" fill="none" xmlns="http://www.w3.org/2000/svg">
<path d="M7.65975 1.06457C7.38766 1.1164 7.01192 1.20709 6.81756 1.2654C6.27986 1.44031 5.3405 1.94563 5.22389 2.12702C5.13319 2.26954 5.13319 2.30194 5.21741 2.45742C5.3988 2.78133 5.59963 2.78133 6.22803 2.45094C6.54547 2.2825 7.01839 2.08815 7.28401 2.01041C7.9448 1.82254 9.09795 1.77071 9.71987 1.90028C11.6569 2.31489 13.1016 3.64943 13.7105 5.57351C13.9243 6.26669 13.9243 7.6401 13.7105 8.37864C13.1599 10.3027 11.6634 11.6956 9.71339 12.1231C9.12386 12.2527 8.0031 12.2203 7.38118 12.0583C6.01425 11.6956 4.82871 10.7821 4.142 9.5577C3.86991 9.0783 3.61726 8.32033 3.55895 7.8215L3.5136 7.45223H4.20031C4.8028 7.45223 4.90645 7.43279 5.01658 7.32266C5.08784 7.2514 5.14615 7.14127 5.14615 7.07648C5.14615 7.0117 4.81575 6.39626 4.40762 5.70307C3.29982 3.81787 3.33221 3.85674 3.10547 3.83731C3.00181 3.82435 2.85929 3.85674 2.80098 3.90209C2.61959 4.04461 1 6.89509 1 7.08296C1 7.37449 1.20083 7.45223 1.98471 7.45223H2.68437V7.6401C2.68437 7.89924 2.84633 8.63777 2.99533 9.07182C3.40995 10.2638 4.25861 11.3587 5.33402 12.0778L5.79398 12.3823L5.80694 17.1244L5.82638 21.8666L6.00129 22.197C6.27986 22.7217 6.70743 23.0392 7.38766 23.227C7.42653 23.24 7.48484 23.3566 7.51075 23.4926C7.6144 24.0433 8.01606 24.5551 8.5732 24.8272L8.8712 24.9762L14.5203 24.9956C19.3338 25.0086 20.2342 24.9956 20.6294 24.9179C21.4781 24.7365 22.1065 24.2506 22.4952 23.4667L22.7349 22.9744L22.7543 15.7186C22.7608 11.7215 22.7543 8.36568 22.7349 8.25555C22.6442 7.75671 22.0806 7.19957 21.4975 7.02466L21.1671 6.92748L21.1283 6.55174C21.0764 5.93629 20.7266 5.39211 20.1824 5.06819L19.8844 4.89328L17.0987 4.86089L14.3195 4.8285L14.0733 4.35558C13.6069 3.44213 12.836 2.54811 12.0586 2.01689C11.5986 1.69945 10.7564 1.3237 10.1669 1.16822C9.49961 0.993307 8.33998 0.947958 7.65975 1.06457ZM3.61078 5.87151C3.81809 6.22782 3.98004 6.53878 3.98004 6.5647C3.98004 6.59061 3.57191 6.61004 3.07307 6.61004C2.57424 6.61004 2.1661 6.59709 2.1661 6.58413C2.1661 6.55174 2.82042 5.39211 2.98886 5.13298C3.10547 4.9451 3.07307 4.91271 3.61078 5.87151ZM19.8585 5.85208C20.1695 6.05938 20.3573 6.37034 20.4027 6.75904C20.4221 6.94692 20.4351 10.3481 20.4221 14.3193L20.4027 21.5427L20.2407 21.8277C20.1435 21.9961 19.9881 22.1516 19.8326 22.2358C19.5929 22.3525 19.405 22.3589 13.6458 22.3525C9.83648 22.3525 7.62088 22.3265 7.4654 22.2812C7.10261 22.184 6.79165 21.8471 6.70743 21.4455C6.66208 21.2252 6.63617 19.7158 6.63617 16.8977V12.6867L6.78517 12.7191C8.56672 13.1337 9.87535 13.0625 11.1322 12.4859C11.3848 12.3628 11.7735 12.1555 11.9873 12.0195C12.4343 11.7344 13.2182 10.9894 13.5486 10.5424L13.7753 10.2379H16.0557C18.0122 10.2379 18.3555 10.225 18.4786 10.1343C18.647 10.0177 18.6665 9.74557 18.511 9.57713C18.4138 9.467 18.2583 9.46052 16.3343 9.46052C14.3908 9.46052 14.2677 9.45404 14.313 9.34391C14.4685 8.93577 14.6758 8.06767 14.7406 7.56236C14.8054 7.01818 14.7924 6.623 14.6888 5.94277L14.6499 5.70307H17.1441C19.6318 5.70307 19.6382 5.70307 19.8585 5.85208ZM21.5429 7.92515C21.6595 8.00289 21.8279 8.17133 21.9057 8.29442L22.0547 8.51468L22.0417 15.6085L22.0223 22.7088L21.8862 23.0068C21.7178 23.376 21.3356 23.7712 20.9857 23.9397C20.7331 24.0627 20.5452 24.0692 14.9285 24.0887C9.37652 24.1016 9.12386 24.0951 8.9036 23.985C8.68981 23.8684 8.39181 23.4538 8.38533 23.2789C8.38533 23.2141 9.63565 23.1946 14.1057 23.1817L19.8196 23.1622L20.1759 22.9614C20.5582 22.7476 20.9404 22.3071 21.0894 21.9119C21.1606 21.7176 21.1801 20.4219 21.1995 14.7209C21.206 10.9052 21.2384 7.77615 21.2708 7.77615C21.2967 7.77615 21.4198 7.84093 21.5429 7.92515Z" fill="#2A5AAE" stroke="#2A5AAE" stroke-width="0.437289"/>
<path d="M13.9308 12.026C13.7753 12.175 13.8012 12.4794 13.9696 12.5961C14.0927 12.6868 14.4231 12.6997 16.2435 12.6997H18.3684L18.5239 12.5377C18.7118 12.3564 18.7247 12.2657 18.5822 12.0648L18.485 11.9223H16.2565C14.3195 11.9223 14.015 11.9353 13.9308 12.026Z" fill="#2A5AAE" stroke="#2A5AAE" stroke-width="0.437289"/>
<path d="M9.06558 14.3322C8.78701 14.4942 8.76109 14.7663 9.00727 14.9606C9.17571 15.0967 9.22754 15.0967 13.7753 15.0967H18.3685L18.524 14.9347C18.6147 14.8505 18.6859 14.7339 18.6859 14.6756C18.6859 14.6173 18.6147 14.5007 18.524 14.4165L18.3685 14.2545H13.7818C10.4843 14.261 9.15627 14.2804 9.06558 14.3322Z" fill="#2A5AAE" stroke="#2A5AAE" stroke-width="0.437289"/>
<path d="M9.0979 16.7616C8.83877 16.8523 8.75455 17.2086 8.95538 17.3835C9.06551 17.4872 9.49308 17.4937 13.7818 17.4937H18.4915L18.5952 17.3317C18.7312 17.1244 18.6729 16.8912 18.4591 16.794C18.336 16.7357 17.0922 16.7162 13.7429 16.7227C11.2422 16.7227 9.14973 16.7422 9.0979 16.7616Z" fill="#2A5AAE" stroke="#2A5AAE" stroke-width="0.437289"/>
<path d="M8.9489 19.2948C8.7999 19.4567 8.81286 19.6705 8.96834 19.826C9.0979 19.9556 9.18212 19.9556 13.7494 19.9556H18.4073L18.5433 19.8066C18.7118 19.6252 18.7183 19.515 18.5822 19.3207L18.485 19.1782H13.7688C9.28578 19.1782 9.04608 19.1846 8.9489 19.2948Z" fill="#2A5AAE" stroke="#2A5AAE" stroke-width="0.437289"/>
<path d="M8.16506 3.77251C8.07436 3.8956 8.0614 4.17417 8.0614 5.50871C8.06788 6.66186 8.08731 7.13478 8.14562 7.24491C8.19097 7.32265 8.79993 7.82797 9.48664 8.35919C10.6074 9.22081 10.7758 9.32447 10.9767 9.31151C11.2682 9.29208 11.4301 9.03942 11.3135 8.78676C11.2682 8.68959 10.737 8.24258 10.0373 7.72431L8.8388 6.83678V5.3338C8.8388 4.05756 8.82585 3.81786 8.73515 3.73364C8.58615 3.57816 8.28167 3.60408 8.16506 3.77251Z" fill="#2A5AAE" stroke="#2A5AAE" stroke-width="0.437289"/>
</svg>
