<svg width="22" height="22" viewBox="0 0 22 22" fill="none" xmlns="http://www.w3.org/2000/svg">
<path d="M1.78218 0.0853596C0.953028 0.306137 0.305411 0.968473 0.0846319 1.80743C-0.0282106 2.22937 -0.0282106 17.4091 0.0846319 17.8311C0.256349 18.4934 0.707719 19.0674 1.29646 19.3569C2.30223 19.8622 3.12647 19.6316 3.12647 18.8466C3.12647 18.3855 2.88116 18.1353 2.36601 18.0617C2.0373 18.0175 1.87539 17.9243 1.70858 17.6986C1.60555 17.5661 1.60555 17.5416 1.59083 11.0703L1.58102 4.57453L1.73802 4.6334C1.86067 4.67756 4.1813 4.69718 10.9126 4.71681C19.9155 4.74134 19.9253 4.74134 20.0578 4.84437C20.3521 5.06024 20.3963 5.17308 20.411 5.75201L20.4306 6.28679H17.5409C15.1368 6.28679 14.607 6.30151 14.3715 6.36038C13.5227 6.58116 12.8653 7.23369 12.6445 8.07755C12.3256 9.30901 13.1057 10.5944 14.3715 10.9231C14.607 10.982 15.1368 10.9967 17.536 10.9967H20.4208L20.411 14.279C20.3963 17.5073 20.3963 17.5661 20.2932 17.6986C20.2393 17.7722 20.1313 17.8801 20.0578 17.9341C19.9253 18.0322 19.8517 18.0371 17.2808 18.0617C14.71 18.0862 14.6364 18.0911 14.5039 18.1892C14.2439 18.3806 14.1654 18.5376 14.1654 18.8466C14.1654 19.1557 14.2439 19.3127 14.5039 19.5041C14.6364 19.6071 14.7002 19.6071 17.2465 19.6218C19.0029 19.6316 19.94 19.6169 20.1117 19.5826C20.9703 19.401 21.6915 18.7044 21.9172 17.8311C22.03 17.4042 22.0251 5.36933 21.9172 4.93759C21.6964 4.09372 21.039 3.4412 20.1902 3.22042C19.9891 3.16645 19.6456 3.14682 18.9882 3.14682H18.0658V2.61695C18.0658 1.76818 17.8794 1.24813 17.3937 0.737883C17.0944 0.423887 16.7019 0.193295 16.2751 0.080452C15.8482 -0.027483 2.1943 -0.027483 1.78218 0.0853596ZM16.1328 1.7044C16.4272 1.92028 16.4713 2.03312 16.486 2.61205L16.5057 3.14682H9.36225C1.55158 3.14682 2.02258 3.16645 1.76255 2.85736C1.43874 2.46977 1.58593 1.84668 2.04711 1.64553C2.16976 1.59156 3.43066 1.58175 9.09731 1.59156C15.9807 1.60137 16.0003 1.60137 16.1328 1.7044ZM20.4208 8.64176V9.42675H17.5997C14.5088 9.42675 14.5726 9.43166 14.3224 9.13729C14.0869 8.85764 14.0869 8.42589 14.3224 8.14624C14.5677 7.85677 14.499 7.86168 17.5899 7.85677H20.4208V8.64176Z" fill="#2A5AAE"/>
<path d="M7.76263 11.0702C6.40852 11.2861 5.10347 12.0711 4.27432 13.1651C2.69943 15.2601 2.79756 18.1106 4.51472 20.1074C5.70693 21.491 7.69394 22.2122 9.47489 21.9178C11.928 21.5057 13.7433 19.656 14.0916 17.2029C14.3615 15.3042 13.5176 13.2878 11.9721 12.1201C10.7701 11.2174 9.2492 10.8347 7.76263 11.0702ZM9.57792 12.6794C10.0685 12.8168 10.4022 12.9591 10.7701 13.2044C12.8602 14.5683 13.1742 17.5022 11.4177 19.2635C9.65642 21.02 6.72251 20.706 5.35859 18.6159C4.92194 17.9487 4.74532 17.3452 4.74532 16.4915C4.74532 15.6379 4.92194 15.0344 5.35368 14.3721C5.93752 13.4791 6.84517 12.861 7.90981 12.6353C8.30231 12.5519 9.19523 12.5764 9.57792 12.6794Z" fill="#2A5AAE"/>
<path d="M8.3269 14.2055C8.14538 14.2889 7.98347 14.4606 7.91478 14.6421C7.83138 14.8629 7.84119 17.3847 7.9295 17.5908C8.02763 17.8214 8.21406 17.9489 9.17568 18.4248C10.0833 18.8762 10.2354 18.9105 10.5445 18.7683C10.9174 18.5867 11.0793 18.1795 10.9272 17.7919C10.8242 17.5172 10.6868 17.4141 9.9852 17.0609L9.4357 16.7862L9.42099 15.7117C9.40627 14.5342 9.40136 14.5097 9.07755 14.2693C8.91074 14.1466 8.52315 14.1123 8.3269 14.2055Z" fill="#2A5AAE"/>
</svg>
