<svg width="27" height="27" viewBox="0 0 27 27" fill="none" xmlns="http://www.w3.org/2000/svg">
<path d="M25.7568 14.4277L16.758 24.962C15.835 26.0447 15.0849 25.6744 15.0849 24.1399V17.5249H10.2543C8.30187 17.5249 6.71917 15.6578 6.71917 13.3545V13.3231C6.71917 11.0198 8.30187 9.15269 10.2543 9.15269H15.0875V2.23962C15.0875 0.70513 15.8137 0.359948 16.7128 1.47395L25.7595 12.6924C25.9669 12.9371 26.0707 13.2258 26.0707 13.5585C26.0707 13.8911 25.9643 14.1861 25.7568 14.4277ZM0 20.3805C0 21.9966 0.486781 23.3773 1.45768 24.5259C2.43124 25.6744 3.60164 26.2455 4.97154 26.2455H9.46429C10.0335 26.2455 10.4964 25.6995 10.4964 25.0279V24.8522C10.4964 24.1807 10.0362 23.6347 9.46695 23.6347H4.97421C4.2161 23.6347 3.5644 23.3146 3.02176 22.6776C2.47912 22.0405 2.21046 21.2717 2.21046 20.3774V6.04291C2.21046 5.14857 2.48178 4.37975 3.02176 3.74274C3.56174 3.10572 4.21344 2.78564 4.97421 2.78564H9.86595C10.4352 2.78564 10.898 2.23962 10.898 1.56809V1.39236C10.898 0.720821 10.4352 0.174805 9.86595 0.174805H4.97421C3.6043 0.174805 2.4339 0.749063 1.46034 1.89444C0.486781 3.04296 0.00266001 4.42369 0.00266001 6.03977L0 20.3805Z" fill="#2A5AAE"/>
</svg>
