<svg width="67" height="63" viewBox="0 0 67 63" fill="none" xmlns="http://www.w3.org/2000/svg">
<path d="M17.3529 28.1176V56.8235C17.3529 57.7752 16.9749 58.6879 16.302 59.3608C15.629 60.0337 14.7164 60.4118 13.7647 60.4118H6.58824C5.63658 60.4118 4.72389 60.0337 4.05097 59.3608C3.37804 58.6879 3 57.7752 3 56.8235V31.7059C3 30.7542 3.37804 29.8415 4.05097 29.1686C4.72389 28.4957 5.63658 28.1176 6.58824 28.1176H17.3529ZM17.3529 28.1176C21.1596 28.1176 24.8103 26.6055 27.502 23.9138C30.1937 21.2221 31.7059 17.5713 31.7059 13.7647V10.1765C31.7059 8.27315 32.462 6.44779 33.8078 5.10194C35.1537 3.75609 36.979 3 38.8824 3C40.7857 3 42.611 3.75609 43.9569 5.10194C45.3027 6.44779 46.0588 8.27315 46.0588 10.1765V28.1176H56.8235C58.7268 28.1176 60.5522 28.8737 61.8981 30.2196C63.2439 31.5654 64 33.3908 64 35.2941L60.4118 53.2353C59.8957 55.4366 58.9168 57.3268 57.6225 58.6211C56.3281 59.9155 54.7884 60.5439 53.2353 60.4118H28.1176C25.2627 60.4118 22.5246 59.2776 20.5059 57.2589C18.4871 55.2401 17.3529 52.502 17.3529 49.6471" stroke="#2A5AAE" stroke-width="5" stroke-linecap="round" stroke-linejoin="round"/>
</svg>
