<svg width="30" height="30" viewBox="0 0 30 30" fill="none" xmlns="http://www.w3.org/2000/svg">
<g clip-path="url(#clip0_395_92)">
<path d="M16.8416 0.524987C17.4013 0.969876 17.7132 1.49641 17.9297 2.16813C17.9873 2.16895 17.9873 2.16895 18.046 2.16979C18.2221 2.17296 18.3981 2.17786 18.5742 2.18278C18.6346 2.18361 18.6949 2.18444 18.7571 2.1853C19.2773 2.20186 19.6559 2.33423 20.0391 2.69547C20.0602 2.74561 20.0814 2.79574 20.1032 2.84739C20.2086 3.01328 20.2086 3.01328 20.4381 3.02393C20.5334 3.02492 20.6286 3.0243 20.7239 3.02243C20.7759 3.02258 20.828 3.02272 20.8816 3.02287C20.9948 3.02299 21.1079 3.02245 21.2211 3.02131C21.4008 3.01956 21.5804 3.01961 21.76 3.02015C22.2067 3.02111 22.6533 3.01892 23.1 3.01683C23.4767 3.01519 23.8533 3.01475 24.23 3.01587C24.4061 3.01591 24.5821 3.0142 24.7581 3.01242C25.589 3.0104 26.2001 3.11615 26.8243 3.71423C27.1705 4.12565 27.3704 4.59983 27.371 5.13427C27.3711 5.17409 27.3712 5.2139 27.3714 5.25492C27.3717 5.38931 27.3716 5.52369 27.3715 5.65807C27.3717 5.75501 27.3718 5.85194 27.372 5.94888C27.3725 6.21602 27.3726 6.48316 27.3727 6.75031C27.3728 7.03814 27.3732 7.32596 27.3736 7.61379C27.3744 8.24356 27.3748 8.87332 27.375 9.50309C27.3752 9.89621 27.3754 10.2893 27.3757 10.6825C27.3764 11.7706 27.377 12.8587 27.3772 13.9468C27.3772 14.0165 27.3772 14.0862 27.3772 14.158C27.3773 14.2278 27.3773 14.2976 27.3773 14.3696C27.3773 14.5111 27.3773 14.6527 27.3774 14.7942C27.3774 14.8644 27.3774 14.9346 27.3774 15.0069C27.3776 16.1444 27.3787 17.2819 27.38 18.4193C27.3814 19.5867 27.3821 20.7541 27.3822 21.9215C27.3823 22.5771 27.3826 23.2327 27.3837 23.8883C27.3846 24.4466 27.3849 25.005 27.3844 25.5633C27.3842 25.8482 27.3842 26.133 27.385 26.4179C27.3858 26.6788 27.3857 26.9397 27.385 27.2006C27.3849 27.2948 27.3851 27.3891 27.3856 27.4834C27.3894 28.2449 27.2967 28.8248 26.7774 29.4142C26.1682 29.9509 25.5848 30.0265 24.7945 30.0225C24.7065 30.0227 24.6184 30.023 24.5303 30.0233C24.2894 30.024 24.0484 30.0237 23.8075 30.0231C23.5472 30.0227 23.2869 30.0234 23.0267 30.0238C22.5172 30.0246 22.0078 30.0245 21.4983 30.0239C21.0842 30.0235 20.6701 30.0235 20.256 30.0237C20.1675 30.0237 20.1675 30.0237 20.0773 30.0238C19.9575 30.0238 19.8377 30.0239 19.7179 30.0239C18.5949 30.0244 17.4719 30.0239 16.3489 30.0229C15.3857 30.0221 14.4224 30.0223 13.4591 30.0231C12.3401 30.024 11.2211 30.0244 10.1021 30.0238C9.98273 30.0238 9.86337 30.0237 9.74401 30.0237C9.68529 30.0237 9.62657 30.0236 9.56606 30.0236C9.15253 30.0235 8.739 30.0237 8.32546 30.0241C7.82141 30.0246 7.31735 30.0245 6.81329 30.0235C6.55619 30.0231 6.29909 30.0229 6.04198 30.0235C5.80648 30.024 5.57098 30.0237 5.33548 30.0228C5.25043 30.0226 5.16539 30.0227 5.08034 30.0231C4.33546 30.0266 3.79198 29.9158 3.22266 29.4142C2.6669 28.7834 2.61067 28.1542 2.61362 27.348C2.61333 27.2509 2.61297 27.1538 2.61254 27.0567C2.61158 26.7907 2.61171 26.5247 2.61203 26.2587C2.61219 25.9714 2.61133 25.6842 2.61062 25.397C2.60939 24.8346 2.60912 24.2722 2.60922 23.7098C2.6093 23.2526 2.60908 22.7954 2.60864 22.3382C2.60852 22.2065 2.6084 22.0747 2.60827 21.9429C2.60821 21.8773 2.60815 21.8118 2.60809 21.7442C2.60698 20.5042 2.60704 19.2642 2.60744 18.0241C2.60777 16.8902 2.60655 15.7563 2.60461 14.6224C2.60263 13.4576 2.60174 12.2928 2.60201 11.128C2.60214 10.4742 2.60184 9.82046 2.60038 9.16671C2.59915 8.61014 2.59894 8.05358 2.60004 7.49701C2.60058 7.21317 2.60065 6.92936 2.59944 6.64553C2.59834 6.38539 2.59861 6.12529 2.59994 5.86516C2.60018 5.77136 2.59994 5.67755 2.59914 5.58376C2.59339 4.85784 2.70332 4.22167 3.22564 3.67669C3.72031 3.23357 4.22384 3.01835 4.88473 3.02821C4.93748 3.02827 4.99023 3.02833 5.04457 3.0284C5.15829 3.02861 5.27201 3.0292 5.38573 3.03014C5.56578 3.03149 5.74579 3.03155 5.92584 3.03123C6.43746 3.03049 6.94905 3.0315 7.46065 3.03476C7.77426 3.03667 8.08782 3.0366 8.40143 3.03529C8.52073 3.03519 8.64004 3.03585 8.75934 3.03729C8.92599 3.03925 9.09247 3.0387 9.25912 3.03759C9.30829 3.0388 9.35745 3.04 9.40811 3.04124C9.66912 3.03849 9.66912 3.03849 9.87829 2.89743C9.9577 2.78894 9.9577 2.78894 10.0203 2.67625C10.0973 2.54573 10.1894 2.48402 10.3198 2.40983C10.3587 2.38702 10.3975 2.36421 10.4375 2.34071C10.6401 2.23813 10.8109 2.21684 11.0346 2.20818C11.0949 2.20573 11.1551 2.20327 11.2172 2.20075C11.28 2.19844 11.3428 2.19614 11.4075 2.19376C11.471 2.19123 11.5344 2.1887 11.5999 2.1861C11.7567 2.17988 11.9135 2.1739 12.0703 2.16813C12.0853 2.12936 12.1003 2.09059 12.1158 2.05064C12.4687 1.15152 12.9228 0.560023 13.8181 0.160608C14.8188 -0.205052 15.9642 -0.0748807 16.8416 0.524987ZM13.6837 1.70899C13.2324 2.24872 13.2422 2.77095 13.2422 3.45719C12.4881 3.45719 11.734 3.45719 10.957 3.45719C10.6687 4.03394 10.8984 4.74596 10.8984 5.39079C13.6055 5.39079 16.3125 5.39079 19.1016 5.39079C19.2165 4.38995 19.2165 4.38995 19.043 3.45719C18.2889 3.45719 17.5348 3.45719 16.7578 3.45719C16.7578 3.22516 16.7578 2.99313 16.7578 2.75407C16.6948 2.2817 16.534 1.90442 16.1611 1.59226C15.3966 1.06109 14.3841 1.05661 13.6837 1.70899ZM4.05396 4.62907C3.86823 4.88378 3.85979 5.05465 3.85933 5.36274C3.85919 5.40191 3.85906 5.44108 3.85891 5.48144C3.85852 5.61365 3.85855 5.74585 3.85857 5.87806C3.85838 5.97343 3.85816 6.06879 3.85792 6.16416C3.85733 6.42697 3.85711 6.68978 3.85696 6.95259C3.85673 7.23574 3.85617 7.51889 3.85566 7.80203C3.8545 8.48615 3.85391 9.17026 3.85339 9.85438C3.85313 10.1763 3.85282 10.4983 3.85251 10.8203C3.85151 11.8901 3.85066 12.96 3.85024 14.0299C3.85013 14.3076 3.85002 14.5853 3.8499 14.863C3.84987 14.932 3.84984 15.001 3.84982 15.0722C3.84933 16.191 3.84784 17.3098 3.84594 18.4286C3.84401 19.5766 3.84295 20.7246 3.84276 21.8726C3.84263 22.5174 3.84212 23.1623 3.84062 23.8071C3.83935 24.3561 3.83888 24.9051 3.83945 25.4541C3.83972 25.7344 3.8396 26.0146 3.83847 26.2948C3.83744 26.5512 3.83749 26.8077 3.8384 27.0641C3.83854 27.157 3.83829 27.2498 3.83759 27.3427C3.83671 27.4688 3.83727 27.5948 3.83819 27.7209C3.83814 27.791 3.83808 27.8611 3.83802 27.9333C3.88378 28.2342 4.03091 28.4145 4.25538 28.6122C4.47241 28.7664 4.58744 28.7771 4.85276 28.7776C4.92585 28.7778 4.99894 28.7781 5.07424 28.7783C5.15609 28.7783 5.23795 28.7783 5.31981 28.7783C5.40618 28.7785 5.49255 28.7787 5.57893 28.779C5.81715 28.7796 6.05537 28.7798 6.2936 28.7799C6.55019 28.7802 6.80677 28.7807 7.06336 28.7812C7.68346 28.7824 8.30355 28.783 8.92364 28.7835C9.21545 28.7838 9.50726 28.7841 9.79907 28.7844C10.7688 28.7854 11.7385 28.7862 12.7081 28.7866C12.9599 28.7868 13.2117 28.7869 13.4634 28.787C13.526 28.787 13.5886 28.787 13.653 28.7871C14.6671 28.7876 15.6812 28.789 16.6952 28.7909C17.7357 28.7929 18.7761 28.7939 19.8166 28.7941C20.401 28.7943 20.9855 28.7948 21.5699 28.7963C22.0676 28.7975 22.5652 28.798 23.0629 28.7974C23.3169 28.7972 23.5709 28.7973 23.8249 28.7984C24.0574 28.7994 24.2898 28.7994 24.5223 28.7985C24.6065 28.7983 24.6906 28.7986 24.7747 28.7993C25.3586 28.8177 25.3586 28.8177 25.8399 28.5353C26.085 28.2571 26.1401 28.1188 26.1405 27.7503C26.1406 27.7112 26.1408 27.6721 26.1409 27.6318C26.1412 27.4994 26.1411 27.3671 26.141 27.2348C26.1412 27.1395 26.1414 27.0441 26.1416 26.9488C26.1421 26.6859 26.1422 26.4229 26.1422 26.16C26.1423 25.8768 26.1427 25.5936 26.1431 25.3104C26.1439 24.6907 26.1443 24.071 26.1446 23.4513C26.1447 23.0646 26.145 22.6778 26.1452 22.2911C26.1459 21.221 26.1465 20.1509 26.1467 19.0807C26.1468 19.0122 26.1468 18.9437 26.1468 18.8731C26.1468 18.8044 26.1468 18.7357 26.1468 18.6649C26.1468 18.5257 26.1469 18.3864 26.1469 18.2472C26.1469 18.1782 26.1469 18.1091 26.1469 18.038C26.1472 16.9187 26.1482 15.7995 26.1496 14.6803C26.1509 13.5321 26.1517 12.3838 26.1517 11.2356C26.1518 10.5906 26.1521 9.94552 26.1532 9.30049C26.1541 8.75126 26.1544 8.20203 26.1539 7.65279C26.1537 7.37245 26.1537 7.09212 26.1546 6.81178C26.1553 6.55523 26.1552 6.2987 26.1545 6.04215C26.1544 5.94925 26.1546 5.85635 26.1551 5.76345C26.1558 5.63729 26.1553 5.51118 26.1546 5.38502C26.1546 5.31491 26.1547 5.2448 26.1547 5.17256C26.1258 4.9192 26.0417 4.72188 25.8692 4.53271C25.5549 4.28806 25.3282 4.26912 24.9418 4.27085C24.8672 4.27084 24.8672 4.27084 24.791 4.27083C24.6265 4.27087 24.462 4.27132 24.2974 4.27178C24.1834 4.27189 24.0693 4.27198 23.9553 4.27203C23.655 4.27226 23.0545 4.27348 23.0545 4.27348C23.0545 4.27348 22.4419 4.27435 22.1355 4.27464C21.5344 4.27527 20.9332 4.2763 20.332 4.27751C20.332 4.64489 20.332 5.01227 20.332 5.39079C20.4604 5.39195 20.5887 5.39311 20.721 5.39431C21.145 5.39823 21.569 5.40277 21.993 5.40763C22.2501 5.41056 22.5071 5.41328 22.7642 5.41551C23.0123 5.41767 23.2604 5.42038 23.5085 5.42349C23.6031 5.42457 23.6978 5.42546 23.7925 5.42614C23.925 5.42713 24.0576 5.42883 24.1901 5.4307C24.3033 5.43187 24.3033 5.43187 24.4188 5.43306C24.5992 5.44851 24.699 5.46044 24.8438 5.56657C24.9707 5.76419 24.9757 5.92735 24.976 6.15931C24.9764 6.23328 24.9768 6.30724 24.9772 6.38345C24.977 6.4657 24.9768 6.54794 24.9766 6.63018C24.9768 6.71742 24.9771 6.80467 24.9774 6.89191C24.9781 7.13199 24.9781 7.37206 24.978 7.61213C24.978 7.87092 24.9786 8.1297 24.9792 8.38848C24.9801 8.89559 24.9805 9.40269 24.9805 9.9098C24.9806 10.3219 24.9808 10.7339 24.9812 11.146C24.9822 12.3137 24.9828 13.4813 24.9827 14.649C24.9827 14.7119 24.9827 14.7749 24.9827 14.8398C24.9827 14.9028 24.9827 14.9659 24.9826 15.0308C24.9826 16.0531 24.9837 17.0753 24.9854 18.0976C24.9871 19.1466 24.9879 20.1956 24.9878 21.2446C24.9877 21.8338 24.9881 22.423 24.9893 23.0121C24.9904 23.5137 24.9906 24.0153 24.9898 24.5168C24.9895 24.7728 24.9894 25.0288 24.9905 25.2848C24.9914 25.5191 24.9912 25.7533 24.9902 25.9876C24.99 26.0724 24.9902 26.1573 24.9909 26.2421C24.9917 26.3573 24.9909 26.4724 24.9901 26.5875C24.9902 26.6836 24.9902 26.6836 24.9902 26.7815C24.9535 26.9972 24.8819 27.0942 24.7266 27.2463C24.5463 27.3224 24.3618 27.3122 24.1677 27.3124C24.1013 27.3126 24.0349 27.3128 23.9664 27.313C23.8934 27.3129 23.8205 27.3128 23.7453 27.3127C23.667 27.3128 23.5887 27.3129 23.5104 27.3131C23.295 27.3134 23.0796 27.3134 22.8643 27.3134C22.6321 27.3134 22.3999 27.3137 22.1677 27.314C21.7128 27.3144 21.2579 27.3146 20.8029 27.3146C20.4332 27.3147 20.0635 27.3148 19.6938 27.315C18.6462 27.3155 17.5985 27.3158 16.5508 27.3157C16.4661 27.3157 16.4661 27.3157 16.3796 27.3157C16.323 27.3157 16.2665 27.3157 16.2082 27.3157C15.2911 27.3157 14.374 27.3162 13.4569 27.3171C12.5157 27.3179 11.5745 27.3183 10.6333 27.3183C10.1047 27.3182 9.57607 27.3184 9.04746 27.319C8.59747 27.3196 8.14748 27.3197 7.69749 27.3193C7.46783 27.3191 7.23818 27.3191 7.00851 27.3196C6.79835 27.3201 6.58818 27.32 6.37802 27.3195C6.26582 27.3193 6.15362 27.3198 6.04142 27.3202C5.97486 27.32 5.90829 27.3197 5.8397 27.3194C5.75355 27.3195 5.75355 27.3195 5.66567 27.3195C5.43476 27.2981 5.2777 27.2489 5.11002 27.0856C5.01756 26.9132 5.0171 26.7902 5.01711 26.5948C5.01669 26.5208 5.01627 26.4468 5.01583 26.3705C5.01626 26.2882 5.01669 26.2059 5.01714 26.1237C5.01698 26.0364 5.01675 25.9491 5.01644 25.8618C5.01582 25.6216 5.01629 25.3814 5.01695 25.1412C5.01747 24.8823 5.01697 24.6234 5.01661 24.3645C5.01605 23.8572 5.01644 23.3499 5.01715 22.8426C5.01795 22.2521 5.01785 21.6617 5.01773 21.0712C5.01754 20.0179 5.01823 18.9645 5.01937 17.9112C5.02049 16.8885 5.0209 15.8657 5.02057 14.843C5.02022 13.73 5.02023 12.6171 5.0209 11.5041C5.02097 11.3855 5.02104 11.2669 5.02111 11.1483C5.02114 11.0899 5.02118 11.0316 5.02121 10.9714C5.02144 10.5596 5.02142 10.1477 5.02131 9.73589C5.02118 9.23417 5.02149 8.73246 5.02234 8.23075C5.02277 7.97463 5.023 7.71852 5.02274 7.4624C5.0225 7.22813 5.0228 6.99386 5.02353 6.75959C5.02371 6.67466 5.02368 6.58973 5.02344 6.5048C5.02314 6.38969 5.02363 6.27458 5.02416 6.15947C5.02424 6.06341 5.02424 6.06341 5.02431 5.96541C5.03912 5.80041 5.06735 5.70491 5.15626 5.56657C5.35837 5.41839 5.56594 5.43322 5.80989 5.4307C5.85164 5.43011 5.89339 5.42952 5.93641 5.42891C6.07401 5.42711 6.21159 5.42611 6.34919 5.42512C6.44475 5.42402 6.54032 5.42288 6.63588 5.42168C6.8871 5.41867 7.13832 5.41635 7.38954 5.41417C7.64602 5.41183 7.90249 5.40883 8.15896 5.40589C8.66196 5.40022 9.16496 5.39534 9.66798 5.39079C9.66798 5.0234 9.66798 4.65602 9.66798 4.27751C9.0094 4.27353 8.35083 4.27031 7.69224 4.2684C7.38642 4.26748 7.08061 4.26624 6.7748 4.26424C6.4796 4.26233 6.18441 4.26128 5.88921 4.26083C5.77666 4.2605 5.66411 4.25987 5.55156 4.25892C5.39376 4.25764 5.23599 4.25747 5.07818 4.25755C5.03178 4.25692 4.98538 4.25629 4.93757 4.25563C4.58237 4.25761 4.28232 4.33579 4.05396 4.62907ZM6.21095 6.62126C6.21095 13.0601 6.21095 19.499 6.21095 26.133C12.0117 26.133 17.8125 26.133 23.7891 26.133C23.7891 19.6941 23.7891 13.2552 23.7891 6.62126C17.9883 6.62126 12.1875 6.62126 6.21095 6.62126Z" fill="#2A5AAE" stroke="#2A5AAE" stroke-width="0.2"/>
<path d="M18.1389 9.53833C18.1859 9.58108 18.2329 9.62383 18.2813 9.66788C18.3343 9.71546 18.3873 9.76304 18.4419 9.81207C19.4069 10.7236 19.8919 11.8993 19.997 13.2139C20.0378 14.7031 19.464 15.9678 18.457 17.0507C17.496 17.9642 16.211 18.4237 14.8949 18.416C13.6237 18.3824 12.4203 17.8818 11.4929 17.0077C10.4988 15.9575 9.99173 14.6812 10.0072 13.2325C10.0788 11.9292 10.5869 10.8418 11.4844 9.90225C11.516 9.86622 11.5477 9.83019 11.5803 9.79307C12.2279 9.08342 13.2401 8.63731 14.1797 8.496C14.222 8.48958 14.2643 8.48316 14.3079 8.47655C15.6518 8.30156 17.0986 8.64814 18.1389 9.53833ZM12.3486 10.7665C11.6611 11.4889 11.2711 12.4054 11.2317 13.4032C11.2633 14.4592 11.6596 15.3835 12.4219 16.1132C12.4564 16.1495 12.4909 16.1858 12.5265 16.2233C13.1702 16.8557 14.1166 17.1595 15 17.1898C16.0473 17.1538 16.9721 16.7516 17.6953 15.996C17.7316 15.9615 17.768 15.927 17.8054 15.8914C18.4414 15.2441 18.7339 14.3059 18.772 13.4179C18.7238 12.2956 18.2827 11.3596 17.4609 10.6054C15.9422 9.31867 13.7942 9.39073 12.3486 10.7665Z" fill="#2A5AAE"/>
<path d="M12.8582 23.2536C12.9598 23.253 12.9598 23.253 13.0636 23.2525C13.1383 23.2525 13.213 23.2524 13.29 23.2523C13.3692 23.2521 13.4484 23.2518 13.5276 23.2515C13.7431 23.2507 13.9586 23.2503 14.1741 23.25C14.3087 23.2499 14.4433 23.2496 14.5779 23.2494C14.999 23.2486 15.4201 23.248 15.8411 23.2478C16.3273 23.2475 16.8135 23.2465 17.2997 23.2448C17.6754 23.2435 18.0511 23.2429 18.4268 23.2429C18.6513 23.2428 18.8757 23.2424 19.1002 23.2414C19.3113 23.2404 19.5225 23.2403 19.7337 23.2408C19.848 23.2409 19.9624 23.2401 20.0767 23.2393C20.1791 23.2397 20.1791 23.2397 20.2836 23.2402C20.3724 23.2401 20.3724 23.2401 20.463 23.24C20.7122 23.2735 20.866 23.3769 21.0279 23.5657C21.1035 23.755 21.1042 23.8788 21.0885 24.0784C21 24.2789 20.8753 24.3948 20.6836 24.4922C20.4211 24.5362 20.161 24.5317 19.8953 24.5292C19.8149 24.5295 19.7345 24.53 19.6542 24.5305C19.4365 24.5316 19.2188 24.5308 19.0012 24.5297C18.7731 24.5287 18.5451 24.5292 18.317 24.5295C17.9342 24.5298 17.5513 24.5289 17.1684 24.5272C16.726 24.5253 16.2836 24.5253 15.8412 24.5264C15.4152 24.5273 14.9893 24.5269 14.5633 24.5259C14.3822 24.5255 14.201 24.5256 14.0199 24.526C13.8066 24.5264 13.5933 24.5257 13.38 24.5241C13.2646 24.5235 13.1491 24.5241 13.0336 24.5247C12.9647 24.5239 12.8958 24.5232 12.8248 24.5224C12.7351 24.5222 12.7351 24.5222 12.6437 24.5219C12.4365 24.4843 12.3384 24.4018 12.1875 24.2579C12.0887 24.0872 12.0699 23.9865 12.074 23.7891C12.143 23.5682 12.2476 23.4692 12.4219 23.3204C12.5748 23.2439 12.6869 23.2541 12.8582 23.2536Z" fill="#2A5AAE"/>
<path d="M12.8036 20.4402C12.8723 20.4397 12.941 20.4392 13.0117 20.4387C13.0875 20.4384 13.1632 20.4382 13.2412 20.4379C13.3215 20.4374 13.4017 20.437 13.482 20.4365C13.746 20.4349 14.01 20.434 14.274 20.4332C14.3649 20.4329 14.4557 20.4326 14.5466 20.4322C14.9246 20.431 15.3026 20.4299 15.6805 20.4292C16.2223 20.4283 16.764 20.4263 17.3057 20.423C17.6866 20.4207 18.0675 20.4196 18.4484 20.4193C18.6759 20.419 18.9033 20.4183 19.1308 20.4164C19.3449 20.4147 19.559 20.4143 19.7732 20.415C19.889 20.415 20.0048 20.4136 20.1206 20.4121C20.6883 20.4161 20.6883 20.4161 20.9055 20.5903C21.0625 20.7742 21.0917 20.865 21.1036 21.0981C21.0882 21.2745 21.0324 21.3704 20.918 21.5039C20.7004 21.6595 20.5512 21.7018 20.2852 21.7024C20.1833 21.7033 20.1833 21.7033 20.0793 21.7042C20.0053 21.7039 19.9313 21.7036 19.8551 21.7034C19.7759 21.7037 19.6968 21.7041 19.6177 21.7046C19.4031 21.7056 19.1886 21.7056 18.9741 21.7052C18.7948 21.705 18.6156 21.7054 18.4364 21.7058C18.0134 21.7066 17.5905 21.7065 17.1675 21.7058C16.7315 21.7051 16.2956 21.706 15.8596 21.7075C15.4849 21.7088 15.1103 21.7092 14.7356 21.7089C14.512 21.7087 14.2884 21.7088 14.0648 21.7098C13.8544 21.7107 13.6442 21.7105 13.4338 21.7094C13.3201 21.7091 13.2064 21.7099 13.0927 21.7108C12.4653 21.7055 12.4653 21.7055 12.1875 21.4453C12.0834 21.2733 12.0693 21.1774 12.0776 20.9766C12.1368 20.7737 12.2191 20.6607 12.3633 20.5078C12.517 20.4309 12.6314 20.4411 12.8036 20.4402Z" fill="#2A5AAE"/>
<path d="M17.5781 11.6599C17.7702 11.8567 17.8102 11.9638 17.8235 12.2385C17.7246 12.7552 17.1137 13.1876 16.7587 13.5418C16.7032 13.5973 16.6478 13.6528 16.5923 13.7084C16.477 13.8238 16.3615 13.9391 16.246 14.0544C16.0981 14.2019 15.9505 14.3497 15.8029 14.4977C15.6615 14.6394 15.5198 14.7809 15.3781 14.9224C15.3252 14.9754 15.2723 15.0285 15.2178 15.0831C15.1687 15.132 15.1195 15.181 15.069 15.2314C15.0043 15.296 15.0043 15.296 14.9382 15.3619C14.718 15.5678 14.5633 15.6299 14.2687 15.6223C13.9553 15.5446 13.753 15.2833 13.5352 15.0584C13.4766 15.0014 13.4179 14.9446 13.3589 14.8881C12.7843 14.3311 12.7843 14.3311 12.7588 13.9744C12.7801 13.6755 12.7801 13.6755 12.8906 13.5349C13.1081 13.3847 13.3094 13.3137 13.5761 13.3557C13.8909 13.5005 14.1271 13.8074 14.3555 14.0623C14.6694 13.8009 14.9582 13.5235 15.244 13.2319C15.3348 13.1401 15.4256 13.0483 15.5164 12.9565C15.658 12.8131 15.7995 12.6695 15.9406 12.5256C16.0779 12.3859 16.2157 12.2467 16.3536 12.1076C16.3957 12.0645 16.4377 12.0213 16.4811 11.9768C16.5406 11.917 16.5406 11.917 16.6014 11.8559C16.6359 11.8208 16.6705 11.7857 16.7061 11.7495C16.9939 11.5158 17.2521 11.5064 17.5781 11.6599Z" fill="#2A5AAE"/>
<path d="M15.4907 2.06192C15.7468 2.23871 15.8775 2.41231 15.9631 2.71012C16.0185 3.01249 15.9699 3.24819 15.8203 3.51578C15.6287 3.76821 15.4307 3.88427 15.1172 3.9296C14.8428 3.94042 14.6522 3.89493 14.4141 3.75015C14.1434 3.49753 14.0187 3.24497 14.0039 2.87125C14.0452 2.58297 14.1335 2.36119 14.3555 2.16812C14.7042 1.93562 15.0994 1.92422 15.4907 2.06192ZM14.8828 2.75406C14.8635 2.85074 14.8441 2.94742 14.8242 3.04703C14.9402 3.10504 14.9402 3.10504 15.0586 3.16422C15.0973 3.12555 15.1359 3.08687 15.1758 3.04703C15.157 2.89452 15.157 2.89452 15.1172 2.75406C15.0398 2.75406 14.9625 2.75406 14.8828 2.75406Z" fill="#2A5AAE"/>
<path d="M9.73731 23.2385C9.80615 23.2383 9.875 23.238 9.94593 23.2378C10.0173 23.2385 10.0888 23.2392 10.1623 23.2399C10.2335 23.2392 10.3047 23.2385 10.3781 23.2378C10.4814 23.2381 10.4814 23.2381 10.5869 23.2385C10.6808 23.2388 10.6808 23.2388 10.7765 23.2391C11.0182 23.2695 11.232 23.3436 11.3891 23.5365C11.4445 23.7411 11.4674 23.933 11.4258 24.1407C11.2983 24.2984 11.1966 24.4018 11.0156 24.4923C10.7773 24.5087 10.5389 24.5107 10.3001 24.5128C10.2209 24.5138 10.1417 24.5154 10.0625 24.5176C9.3204 24.5385 9.3204 24.5385 9.09049 24.3591C8.92131 24.144 8.88272 24.0002 8.90624 23.7306C9.05938 23.3477 9.34417 23.2397 9.73731 23.2385Z" fill="#2A5AAE"/>
<path d="M10.1697 20.42C10.2852 20.4198 10.2852 20.4198 10.403 20.4196C11.0432 20.4261 11.0432 20.4261 11.3086 20.6251C11.4542 20.8435 11.4493 21.017 11.4258 21.2696C11.3739 21.4616 11.3246 21.4946 11.1509 21.5966C10.9456 21.6847 10.8089 21.7024 10.5869 21.7031C10.518 21.7034 10.4491 21.7036 10.3781 21.7038C10.3069 21.7031 10.2357 21.7025 10.1624 21.7018C10.0552 21.7028 10.0552 21.7028 9.94595 21.7038C9.84268 21.7035 9.84268 21.7035 9.73732 21.7031C9.64356 21.7028 9.64356 21.7028 9.54791 21.7025C9.29225 21.6689 9.13846 21.5698 8.97217 21.3758C8.89648 21.1866 8.89582 21.0628 8.91152 20.8631C9.14812 20.327 9.66654 20.4091 10.1697 20.42Z" fill="#2A5AAE"/>
</g>
<defs>
<clipPath id="clip0_395_92">
<rect width="30" height="30" fill="white"/>
</clipPath>
</defs>
</svg>
