<svg width="35" height="22" viewBox="0 0 35 22" fill="none" xmlns="http://www.w3.org/2000/svg">
<mask id="path-1-inside-1_1701_3811" fill="white">
<rect x="0.5" y="0.5" width="34" height="21.42" rx="1.7"/>
</mask>
<rect x="0.5" y="0.5" width="34" height="21.42" rx="1.7" stroke="black" stroke-width="3.57" mask="url(#path-1-inside-1_1701_3811)"/>
<line x1="5.28126" y1="4.23193" x2="5.28126" y2="8.48193" stroke="black" stroke-width="0.8925"/>
<path d="M30.25 5.6001L16.735 5.6001" stroke="black" stroke-width="1.33875" stroke-linecap="round"/>
<path d="M28.125 8.5752L16.735 8.5752" stroke="black" stroke-width="1.33875" stroke-linecap="round"/>
<path d="M23.875 11.5498H16.735" stroke="black" stroke-width="1.33875" stroke-linecap="round"/>
<path d="M28.465 16.5649L9.42501 16.5649" stroke="black" stroke-width="1.33875" stroke-linecap="round"/>
<line x1="5.28126" y1="9.57861" x2="5.28126" y2="13.8286" stroke="black" stroke-width="0.8925"/>
<line x1="5.28126" y1="14.9253" x2="5.28126" y2="19.1753" stroke="black" stroke-width="0.8925"/>
<path d="M14.242 6.85925L13.9764 7.81871H8.90257L9.16819 6.85925H14.242ZM11.7864 12.7949L9.05977 9.58044L9.05435 8.77276H10.3499C10.686 8.77276 10.9624 8.71313 11.1793 8.59387C11.3997 8.471 11.5641 8.30658 11.6726 8.10059C11.781 7.89099 11.8352 7.6579 11.8352 7.40132C11.8352 7.12306 11.7846 6.87732 11.6834 6.6641C11.5822 6.45089 11.4214 6.28465 11.201 6.1654C10.9805 6.04614 10.6896 5.98651 10.3282 5.98651H8.90799L9.20071 4.90237H10.3282C10.9679 4.90237 11.4991 4.99814 11.9219 5.18967C12.3447 5.3812 12.6609 5.65946 12.8705 6.02446C13.0837 6.38945 13.1904 6.83034 13.1904 7.34711C13.1904 7.79884 13.1127 8.19816 12.9573 8.54509C12.8019 8.8884 12.5507 9.16666 12.2038 9.37988C11.8569 9.58948 11.3961 9.71957 10.8215 9.77017L13.315 12.7245V12.7949H11.7864ZM14.2474 4.90237L13.9764 5.86184H9.82951L10.0951 4.90237H14.2474Z" fill="black"/>
</svg>
