<svg width="27" height="27" viewBox="0 0 27 27" fill="none" xmlns="http://www.w3.org/2000/svg">
<path d="M26.0707 10.1005C26.0707 9.69611 25.7781 9.44229 25.1928 9.34467L17.329 8.14531L13.8042 0.670245C13.6046 0.221183 13.3493 -0.00195312 13.0353 -0.00195312C12.7214 -0.00195312 12.466 0.221183 12.2665 0.670245L8.74166 8.14531L0.87789 9.34467C0.29263 9.44229 0 9.69611 0 10.1005C0 10.3293 0.130353 10.5942 0.39106 10.8899L6.09469 16.7054L4.74859 24.9196C4.72731 25.073 4.71667 25.1818 4.71667 25.2487C4.71667 25.4774 4.77253 25.6727 4.8816 25.8317C4.99067 25.9906 5.15561 26.0687 5.37375 26.0687C5.56263 26.0687 5.77013 26.0046 6.00158 25.8707L13.0353 21.9937L20.0718 25.8707C20.2926 26.0018 20.5001 26.0687 20.6969 26.0687C20.9071 26.0687 21.0667 25.9906 21.1758 25.8317C21.2849 25.6727 21.3407 25.4774 21.3407 25.2487C21.3407 25.1065 21.3354 24.9977 21.3248 24.9196L19.976 16.7054L25.6637 10.8899C25.935 10.6026 26.0707 10.3404 26.0707 10.1005Z" fill="#2A5AAE"/>
</svg>
