<svg width="30" height="24" viewBox="0 0 30 24" fill="none" xmlns="http://www.w3.org/2000/svg">
<path d="M13.5224 22.6335H10.5821C10.0735 22.6335 9.66138 22.4537 9.66138 22.2319V16.7717C9.66138 16.5499 10.0735 16.3701 10.5821 16.3701H13.5224C14.0309 16.3701 14.4431 16.5499 14.4431 16.7717V22.2319C14.4431 22.4537 14.0309 22.6335 13.5224 22.6335Z" fill="#2A5AAE"/>
<path d="M21.1659 22.7003H18.2256C17.7171 22.7003 17.3049 22.3828 17.3049 21.9911V10.5462C17.3049 10.1544 17.7171 9.83691 18.2256 9.83691H21.1659C21.6745 9.83691 22.0866 10.1544 22.0866 10.5462V21.9911C22.0866 22.3828 21.6741 22.7003 21.1659 22.7003Z" fill="#2A5AAE"/>
<path d="M28.7826 22.6486H25.8631C25.3581 22.6486 24.9489 22.2123 24.9489 21.6739V1.49961C24.9489 0.961217 25.3581 0.524902 25.8631 0.524902H28.7826C29.2876 0.524902 29.6969 0.961217 29.6969 1.49961V21.6739C29.6969 22.2123 29.2876 22.6486 28.7826 22.6486Z" fill="#2A5AAE"/>
<line x1="7.60706" y1="22.6328" x2="29.9328" y2="22.6328" stroke="#2A5AAE" stroke-width="1.68369"/>
<path d="M3.83607 17.8997L6.40678 14.2298C7.53919 14.8048 8.82794 14.996 10.0785 14.7743C13.2735 14.2115 15.415 11.1543 14.8522 7.95934C14.2894 4.76438 11.2322 2.6229 8.03725 3.18567C4.84229 3.74845 2.70081 6.80565 3.26358 10.0006C3.48254 11.2517 4.1025 12.3975 5.0299 13.2653L2.4592 16.9353C2.34582 17.1181 2.30674 17.3374 2.34997 17.5481C2.3932 17.7588 2.51546 17.945 2.69166 18.0685C2.86786 18.1919 3.08461 18.2432 3.29743 18.2118C3.51025 18.1804 3.70299 18.0687 3.83607 17.8997ZM8.32886 4.84119C9.14743 4.697 9.99038 4.79879 10.7511 5.13367C11.5118 5.46856 12.1562 6.02151 12.6026 6.7226C13.0491 7.42368 13.2776 8.24142 13.2594 9.07239C13.2411 9.90336 12.9768 10.7103 12.4999 11.391C12.0231 12.0718 11.355 12.5959 10.5803 12.897C9.80562 13.1981 8.95901 13.2627 8.14757 13.0827C7.33613 12.9026 6.5963 12.486 6.02163 11.8855C5.44697 11.285 5.06329 10.5276 4.9191 9.70899C4.72714 8.61149 4.97831 7.48266 5.61753 6.5701C6.25675 5.65755 7.23182 5.03578 8.32886 4.84119Z" fill="#2A5AAE"/>
<circle cx="9.03821" cy="9.0459" r="1.39747" fill="#2A5AAE"/>
</svg>
