<svg width="12" height="18" viewBox="0 0 12 18" fill="none" xmlns="http://www.w3.org/2000/svg">
<path d="M0 1H12M0 17H12M1.66667 17V12.8261L3.57067 11.6337C4.00656 11.3609 4.3673 10.9749 4.61776 10.5133C4.86822 10.0518 4.99986 9.53041 4.99986 9C4.99986 8.46959 4.86822 7.94822 4.61776 7.48667C4.3673 7.02512 4.00656 6.63912 3.57067 6.36626L1.66667 5.17391V1M10.3333 1V5.17391L8.42933 6.36626C7.99361 6.63925 7.63303 7.0253 7.38269 7.48683C7.13235 7.94837 7.00077 8.46967 7.00077 9C7.00077 9.53033 7.13235 10.0516 7.38269 10.5132C7.63303 10.9747 7.99361 11.3607 8.42933 11.6337L10.3333 12.8261V17" stroke="#2A5AAE" stroke-width="1.8"/>
</svg>
