<svg width="30" height="30" viewBox="0 0 30 30" fill="none" xmlns="http://www.w3.org/2000/svg">
<path d="M17.417 0.831238C17.7239 1.14513 17.9342 1.43294 17.9883 1.87494C18.0273 1.87371 18.0662 1.87248 18.1064 1.87122C18.2843 1.86633 18.4622 1.86329 18.6401 1.86029C18.7015 1.85833 18.7628 1.85636 18.826 1.85434C19.1925 1.8497 19.4107 1.86041 19.6875 2.10931C19.892 2.35687 19.9333 2.49691 19.9219 2.81244C19.9715 2.81212 19.9715 2.81212 20.0221 2.81178C20.8286 2.8066 21.6351 2.80274 22.4416 2.8003C22.8316 2.79907 23.2216 2.79742 23.6116 2.79476C23.9881 2.79221 24.3646 2.79081 24.7411 2.7902C24.8847 2.78977 25.0282 2.78893 25.1717 2.78766C25.373 2.78595 25.5742 2.78572 25.7755 2.78583C25.8347 2.78499 25.8938 2.78415 25.9547 2.78328C26.3853 2.78578 26.699 2.87549 27.0259 3.16194C27.0575 3.20009 27.089 3.23823 27.1216 3.27753C27.1541 3.31552 27.1865 3.35351 27.22 3.39265C27.4086 3.66645 27.4366 3.90005 27.4369 4.22944C27.4371 4.27138 27.4374 4.31333 27.4376 4.35654C27.4381 4.49748 27.4378 4.63839 27.4375 4.77933C27.4378 4.88124 27.438 4.98315 27.4383 5.08506C27.4391 5.36542 27.439 5.64577 27.4389 5.92612C27.4389 6.22837 27.4395 6.53061 27.4401 6.83285C27.4411 7.42511 27.4414 8.01738 27.4414 8.60964C27.4415 9.09099 27.4417 9.57233 27.4421 10.0537C27.4431 11.4179 27.4437 12.7821 27.4436 14.1463C27.4436 14.2198 27.4436 14.2934 27.4436 14.3692C27.4436 14.4429 27.4436 14.5165 27.4436 14.5924C27.4435 15.7864 27.4446 16.9803 27.4463 18.1743C27.448 19.3997 27.4488 20.6252 27.4487 21.8506C27.4486 22.5388 27.449 23.227 27.4502 23.9152C27.4513 24.5012 27.4516 25.0871 27.4508 25.673C27.4504 25.972 27.4504 26.2709 27.4514 26.5699C27.4523 26.8437 27.4521 27.1173 27.4511 27.3911C27.4509 27.4901 27.4511 27.5891 27.4518 27.6881C27.458 28.6952 27.458 28.6952 27.0724 29.1352C27.0342 29.1668 26.9961 29.1984 26.9568 29.2309C26.9188 29.2634 26.8808 29.2959 26.8417 29.3293C26.5905 29.5024 26.3732 29.5459 26.0708 29.5463C25.9632 29.5468 25.9632 29.5468 25.8534 29.5474C25.774 29.5472 25.6946 29.5471 25.6151 29.5469C25.5306 29.5471 25.4461 29.5473 25.3616 29.5477C25.1294 29.5484 24.8971 29.5484 24.6648 29.5482C24.4144 29.5482 24.1639 29.5489 23.9134 29.5494C23.4227 29.5504 22.9319 29.5507 22.4412 29.5508C22.0423 29.5508 21.6434 29.5511 21.2445 29.5514C20.1138 29.5525 18.983 29.553 17.8523 29.5529C17.7608 29.5529 17.7608 29.5529 17.6675 29.5529C17.6065 29.5529 17.5455 29.5529 17.4826 29.5529C16.4932 29.5528 15.5039 29.554 14.5145 29.5556C13.4988 29.5573 12.4831 29.5581 11.4674 29.558C10.8971 29.558 10.3268 29.5583 9.75653 29.5596C9.27097 29.5606 8.78542 29.5609 8.29985 29.5601C8.05213 29.5597 7.80442 29.5597 7.55669 29.5607C7.32981 29.5616 7.10296 29.5615 6.87608 29.5604C6.79411 29.5603 6.71213 29.5605 6.63016 29.5611C6.10436 29.565 5.7266 29.5399 5.31783 29.1817C5.28626 29.1435 5.25469 29.1054 5.22216 29.0661C5.18968 29.0281 5.1572 28.9901 5.12374 28.951C4.96427 28.7195 4.9072 28.5131 4.90745 28.2337C4.90721 28.1739 4.90698 28.1141 4.90674 28.0525C4.90708 27.9873 4.90742 27.922 4.90777 27.8548C4.90767 27.7851 4.90757 27.7155 4.90747 27.6438C4.90731 27.4507 4.90768 27.2576 4.90826 27.0645C4.90877 26.8562 4.9086 26.6479 4.90851 26.4397C4.90845 26.0788 4.90882 25.718 4.90948 25.3572C4.91043 24.8356 4.91073 24.3139 4.91088 23.7922C4.91114 22.9459 4.91192 22.0995 4.91302 21.2531C4.9141 20.431 4.91493 19.6088 4.91543 18.7867C4.91547 18.7106 4.91547 18.7106 4.91552 18.6331C4.91567 18.3789 4.91582 18.1246 4.91597 17.8704C4.91718 15.7612 4.91925 13.6521 4.92187 11.5429C4.86218 11.5254 4.86218 11.5254 4.80129 11.5076C4.72264 11.4844 4.72264 11.4844 4.6424 11.4607C4.59053 11.4454 4.53865 11.4301 4.4852 11.4144C3.89309 11.2269 3.393 10.8939 2.92968 10.4882C2.86952 10.4406 2.86952 10.4406 2.80814 10.3921C1.90636 9.66216 1.33914 8.45594 1.17187 7.32416C1.09282 6.02653 1.23218 5.00016 1.87499 3.86713C1.90331 3.8172 1.93164 3.76727 1.96082 3.71584C2.69021 2.54246 3.89193 1.79504 5.21483 1.46478C6.53013 1.16199 7.87995 1.43867 9.02343 2.10931C9.27393 2.26808 9.51968 2.42752 9.72735 2.64043C9.97692 2.80219 10.1904 2.78916 10.4821 2.78955C10.5654 2.791 10.5654 2.791 10.6503 2.79249C10.827 2.79533 11.0037 2.79658 11.1804 2.79779C11.3005 2.79944 11.4205 2.80119 11.5406 2.80306C11.8343 2.80738 12.1281 2.81029 12.4219 2.81244C12.4199 2.75821 12.4179 2.70398 12.4159 2.6481C12.4238 2.40061 12.4997 2.29881 12.6562 2.10931C12.9791 1.81896 13.2841 1.84686 13.7036 1.86029C13.7663 1.86135 13.829 1.86241 13.8936 1.8635C14.0476 1.86625 14.2015 1.87009 14.3555 1.87494C14.362 1.82237 14.3686 1.7698 14.3754 1.71564C14.4622 1.28384 14.7563 0.957607 15.1149 0.715882C15.8402 0.282345 16.7289 0.368108 17.417 0.831238ZM15.3992 1.8493C15.2766 2.08175 15.2174 2.30575 15.1588 2.5609C15.1451 2.60523 15.1313 2.64957 15.1172 2.69525C14.9536 2.77703 14.8124 2.76662 14.6297 2.77239C14.5302 2.77573 14.5302 2.77573 14.4287 2.77915C14.3018 2.78294 14.3018 2.78294 14.1724 2.7868C13.9041 2.79526 13.6358 2.80372 13.3594 2.81244C13.3594 3.74056 13.3594 4.66869 13.3594 5.62494C15.2156 5.62494 17.0719 5.62494 18.9844 5.62494C18.9844 4.69681 18.9844 3.76869 18.9844 2.81244C18.4524 2.80014 18.4524 2.80014 17.9203 2.78971C17.8542 2.78777 17.788 2.78583 17.7198 2.78383C17.652 2.78229 17.5842 2.78076 17.5143 2.77918C17.3437 2.75385 17.3437 2.75385 17.2352 2.67319C17.1435 2.54347 17.1204 2.42166 17.0874 2.26679C17.0029 1.93218 16.8962 1.70185 16.5905 1.51582C16.1207 1.32499 15.7159 1.47831 15.3992 1.8493ZM3.28124 3.69135C2.45405 4.53167 2.1496 5.55377 2.14527 6.70954C2.16049 7.85369 2.66672 8.79191 3.44237 9.61664C3.71036 9.87735 4.01331 10.0675 4.33593 10.2538C4.37437 10.2767 4.41282 10.2996 4.45243 10.3232C5.37929 10.8333 6.44374 10.8672 7.45078 10.6182C8.59271 10.2692 9.5262 9.50996 10.0928 8.45575C10.5562 7.45534 10.6917 6.28352 10.3198 5.22862C10.2804 5.12554 10.2379 5.02362 10.1953 4.92181C10.1728 4.86675 10.1503 4.81169 10.1271 4.75496C9.9543 4.3747 9.70798 4.06243 9.43358 3.74994C9.39876 3.70953 9.36394 3.66912 9.32807 3.62749C8.54422 2.77986 7.51009 2.44338 6.38671 2.34369C5.16928 2.34369 4.13697 2.84734 3.28124 3.69135ZM10.7226 3.74994C10.8085 3.96449 10.8976 4.17363 10.9936 4.38348C11.0396 4.48379 11.0855 4.5841 11.1328 4.68744C11.5582 4.68744 11.9836 4.68744 12.4219 4.68744C12.4219 4.37806 12.4219 4.06869 12.4219 3.74994C11.8611 3.74994 11.3004 3.74994 10.7226 3.74994ZM19.9219 3.74994C19.9219 4.05931 19.9219 4.36869 19.9219 4.68744C19.989 4.68778 20.0562 4.68813 20.1253 4.68848C20.7573 4.69183 21.3893 4.69609 22.0213 4.70125C22.3462 4.70388 22.6712 4.70617 22.9961 4.70774C23.3095 4.70926 23.623 4.71162 23.9364 4.71458C24.0561 4.71556 24.1759 4.71623 24.2956 4.7166C24.463 4.71716 24.6303 4.7188 24.7977 4.7207C24.8475 4.72061 24.8972 4.72053 24.9485 4.72044C25.2817 4.72581 25.2817 4.72581 25.4131 4.8121C25.5236 4.97337 25.5103 5.09992 25.5104 5.29434C25.5106 5.33248 25.5109 5.37062 25.5112 5.40992C25.5118 5.53861 25.5112 5.66726 25.5106 5.79596C25.5108 5.88879 25.5111 5.98163 25.5114 6.07446C25.5122 6.33026 25.5118 6.58605 25.5113 6.84186C25.5109 7.11746 25.5115 7.39305 25.512 7.66865C25.5127 8.20882 25.5126 8.74899 25.5121 9.28916C25.5117 9.72802 25.5116 10.1669 25.5118 10.6057C25.5118 10.6681 25.5119 10.7305 25.5119 10.7947C25.5119 10.9214 25.512 11.0481 25.512 11.1748C25.5125 12.3639 25.512 13.5529 25.511 14.7419C25.5102 15.763 25.5104 16.7841 25.5112 17.8052C25.5121 18.9898 25.5125 20.1745 25.512 21.3592C25.5119 21.4854 25.5119 21.6117 25.5118 21.7379C25.5118 21.8 25.5117 21.8621 25.5117 21.9261C25.5116 22.3646 25.5118 22.8032 25.5122 23.2417C25.5127 23.7758 25.5126 24.31 25.5117 24.8441C25.5112 25.1168 25.511 25.3896 25.5116 25.6623C25.5121 25.9117 25.5118 26.161 25.5109 26.4104C25.5107 26.5009 25.5108 26.5914 25.5112 26.6819C25.5118 26.8044 25.5112 26.9268 25.5104 27.0493C25.5104 27.1516 25.5104 27.1516 25.5103 27.2559C25.4883 27.4218 25.4883 27.4218 25.4182 27.5316C25.2746 27.6212 25.1749 27.6196 25.0058 27.6197C24.9419 27.6202 24.878 27.6206 24.8121 27.6211C24.7416 27.6207 24.6711 27.6203 24.5985 27.6199C24.5238 27.6202 24.4492 27.6205 24.3722 27.6208C24.1645 27.6215 23.9568 27.6211 23.7491 27.6206C23.5253 27.6202 23.3014 27.6208 23.0776 27.6213C22.639 27.6221 22.2003 27.6219 21.7617 27.6214C21.4053 27.621 21.0489 27.6209 20.6925 27.6211C20.6418 27.6211 20.5911 27.6212 20.5389 27.6212C20.436 27.6213 20.3331 27.6213 20.2302 27.6214C19.2645 27.6219 18.2988 27.6213 17.3331 27.6204C16.5039 27.6196 15.6746 27.6197 14.8454 27.6205C13.8833 27.6215 12.9211 27.6218 11.9589 27.6213C11.8564 27.6212 11.7538 27.6212 11.6513 27.6211C11.6008 27.6211 11.5504 27.6211 11.4984 27.621C11.1423 27.6209 10.7862 27.6211 10.4301 27.6216C9.99628 27.622 9.5625 27.6219 9.12872 27.621C8.90726 27.6205 8.68581 27.6203 8.46435 27.6209C8.22463 27.6215 7.98494 27.6208 7.74522 27.6199C7.63947 27.6205 7.63947 27.6205 7.53159 27.6211C7.46767 27.6206 7.40374 27.6202 7.33788 27.6197C7.28251 27.6197 7.22714 27.6197 7.17009 27.6196C7.03124 27.5976 7.03124 27.5976 6.92559 27.525C6.83593 27.3931 6.83329 27.314 6.83291 27.1549C6.83236 27.0999 6.83181 27.0448 6.83124 26.9881C6.83152 26.9275 6.8318 26.8669 6.8321 26.8045C6.83171 26.7403 6.83132 26.676 6.83092 26.6098C6.82982 26.3933 6.82998 26.1768 6.83012 25.9604C6.8296 25.8056 6.829 25.6509 6.82832 25.4962C6.82698 25.1625 6.82628 24.8288 6.82602 24.4951C6.82564 24.0126 6.8243 23.5301 6.82272 23.0477C6.82018 22.2649 6.81843 21.4822 6.81716 20.6995C6.81593 19.939 6.81434 19.1786 6.81224 18.4181C6.81211 18.3713 6.81199 18.3244 6.81185 18.2761C6.8112 18.0411 6.81055 17.806 6.80989 17.5709C6.80443 15.6202 6.80025 13.6694 6.79687 11.7187C6.48749 11.7187 6.17812 11.7187 5.85937 11.7187C5.85536 13.8028 5.85224 15.8868 5.85039 17.9709C5.85017 18.2169 5.84994 18.4629 5.84971 18.7089C5.84966 18.7579 5.84962 18.8068 5.84957 18.8573C5.8488 19.6505 5.84742 20.4436 5.8458 21.2368C5.84416 22.0506 5.84318 22.8643 5.84283 23.678C5.84258 24.1803 5.84182 24.6825 5.8404 25.1847C5.83947 25.5289 5.83919 25.8732 5.83941 26.2175C5.83953 26.4162 5.83935 26.6149 5.83841 26.8136C5.83754 27.029 5.83775 27.2444 5.83823 27.4598C5.83772 27.5226 5.8372 27.5854 5.83668 27.6502C5.83858 27.9641 5.84098 28.2145 6.03515 28.4765C6.25183 28.586 6.42965 28.6084 6.67065 28.6086C6.7396 28.6089 6.80854 28.6093 6.87958 28.6096C6.99284 28.6093 6.99284 28.6093 7.10839 28.609C7.1896 28.6091 7.27081 28.6094 7.35202 28.6096C7.57515 28.6102 7.79828 28.6101 8.02141 28.6099C8.26206 28.6097 8.5027 28.6103 8.74335 28.6107C9.21479 28.6114 9.68623 28.6115 10.1577 28.6114C10.5408 28.6113 10.9239 28.6114 11.3071 28.6117C11.3616 28.6117 11.4161 28.6117 11.4722 28.6118C11.5829 28.6118 11.6936 28.6119 11.8043 28.612C12.8429 28.6126 13.8814 28.6125 14.9199 28.6121C15.8703 28.6118 16.8207 28.6125 17.7711 28.6136C18.7467 28.6147 19.7223 28.6152 20.6979 28.615C21.2457 28.6149 21.7935 28.615 22.3414 28.6159C22.8077 28.6166 23.274 28.6166 23.7404 28.6159C23.9784 28.6156 24.2163 28.6155 24.4543 28.6162C24.6722 28.6169 24.89 28.6167 25.1078 28.6159C25.224 28.6156 25.3402 28.6163 25.4563 28.6169C25.5254 28.6165 25.5945 28.6161 25.6657 28.6156C25.7252 28.6157 25.7847 28.6157 25.8461 28.6157C26.0548 28.5886 26.1907 28.5326 26.3672 28.4179C26.5035 28.192 26.4991 27.9761 26.4993 27.7165C26.4995 27.6759 26.4997 27.6353 26.4998 27.5935C26.5003 27.4572 26.5 27.3208 26.4996 27.1845C26.4998 27.0859 26.5 26.9873 26.5003 26.8887C26.5009 26.6174 26.5008 26.3462 26.5005 26.075C26.5004 25.7826 26.5009 25.4902 26.5014 25.1977C26.5021 24.6248 26.5022 24.0518 26.5021 23.4789C26.502 23.0133 26.5021 22.5477 26.5023 22.0821C26.5024 21.9828 26.5024 21.9828 26.5024 21.8815C26.5025 21.747 26.5026 21.6125 26.5026 21.478C26.5033 20.2162 26.5032 18.9543 26.5028 17.6924C26.5025 16.5374 26.5032 15.3824 26.5043 14.2274C26.5054 13.0421 26.5059 11.8568 26.5057 10.6714C26.5056 10.0057 26.5057 9.33997 26.5065 8.67425C26.5072 8.10754 26.5073 7.54084 26.5066 6.97413C26.5063 6.68489 26.5062 6.39565 26.5069 6.10641C26.5075 5.84174 26.5074 5.57708 26.5065 5.31241C26.5064 5.21656 26.5065 5.1207 26.507 5.02485C26.5076 4.89471 26.5071 4.76462 26.5063 4.63448C26.5063 4.52599 26.5063 4.52599 26.5063 4.4153C26.4819 4.19629 26.4225 4.05468 26.3086 3.86713C26.0488 3.69514 25.7235 3.73437 25.423 3.73664C25.3635 3.73662 25.304 3.7366 25.2427 3.73658C25.0465 3.73667 24.8502 3.73758 24.654 3.7385C24.5178 3.73871 24.3816 3.73888 24.2454 3.739C23.8871 3.73944 23.5289 3.7406 23.1707 3.74189C22.805 3.74309 22.4394 3.74363 22.0737 3.74422C21.3564 3.74547 20.6391 3.74747 19.9219 3.74994ZM11.4258 5.62494C11.4285 5.73605 11.4312 5.84715 11.434 5.96163C11.4601 7.4592 11.2588 8.6373 10.3125 9.84369C10.2828 9.88297 10.2531 9.92224 10.2225 9.96271C9.58195 10.756 8.66839 11.1926 7.73437 11.5429C7.73437 16.5509 7.73437 21.5589 7.73437 26.7187C13.3031 26.7187 18.8719 26.7187 24.6094 26.7187C24.6094 19.7578 24.6094 12.7968 24.6094 5.62494C23.0625 5.62494 21.5156 5.62494 19.9219 5.62494C19.8832 5.77963 19.8445 5.93431 19.8047 6.09369C19.6708 6.29893 19.5611 6.41133 19.3359 6.50385C19.2092 6.51892 19.2092 6.51892 19.0699 6.51952C18.9903 6.52027 18.9903 6.52027 18.9091 6.52103C18.8513 6.52098 18.7935 6.52092 18.734 6.52087C18.6728 6.52126 18.6116 6.52166 18.5486 6.52206C18.3461 6.52318 18.1436 6.5234 17.9411 6.52353C17.8004 6.52391 17.6597 6.5243 17.519 6.52471C17.224 6.52541 16.9289 6.52563 16.6339 6.52556C16.2558 6.52555 15.8778 6.52715 15.4998 6.52917C15.2091 6.53047 14.9185 6.53071 14.6279 6.53065C14.4885 6.53078 14.3491 6.5313 14.2098 6.53221C14.0148 6.53336 13.8199 6.53302 13.6249 6.53231C13.5386 6.5333 13.5386 6.5333 13.4505 6.53431C13.1085 6.53116 12.9178 6.49515 12.6562 6.26947C12.4827 6.04207 12.472 5.92555 12.4219 5.62494C12.0932 5.62494 11.7644 5.62494 11.4258 5.62494Z" fill="#2A5AAE" stroke="#2A5AAE" stroke-width="0.2"/>
<path d="M14.8553 7.46952C14.9202 7.46879 14.9852 7.46805 15.052 7.46729C15.1219 7.46776 15.1917 7.46823 15.2637 7.46872C15.3356 7.4685 15.4075 7.46827 15.4817 7.46804C15.6338 7.46788 15.7858 7.46832 15.9379 7.4693C16.171 7.47055 16.4039 7.46931 16.6369 7.46781C16.7846 7.46796 16.9324 7.46826 17.0801 7.46872C17.1499 7.46825 17.2197 7.46777 17.2917 7.46729C17.389 7.46839 17.389 7.46839 17.4884 7.46952C17.5454 7.46971 17.6025 7.4699 17.6613 7.47009C17.86 7.50921 17.9282 7.57153 18.0469 7.73423C18.0766 7.8854 18.0766 7.8854 18.0772 8.05832C18.0779 8.12324 18.0787 8.18816 18.0794 8.25505C18.0789 8.32487 18.0785 8.3947 18.078 8.46665C18.0782 8.53859 18.0784 8.61053 18.0787 8.68466C18.0788 8.83675 18.0784 8.98884 18.0774 9.14093C18.0762 9.37397 18.0774 9.6069 18.0789 9.83994C18.0787 9.98764 18.0784 10.1353 18.078 10.2831C18.0785 10.3529 18.0789 10.4227 18.0794 10.4947C18.0783 10.592 18.0783 10.592 18.0772 10.6914C18.077 10.7484 18.0768 10.8055 18.0766 10.8643C18.0385 11.0581 17.965 11.1283 17.8125 11.2499C17.6783 11.2765 17.6783 11.2765 17.5332 11.2727C17.4551 11.2716 17.4551 11.2716 17.3753 11.2704C17.3214 11.2685 17.2675 11.2665 17.2119 11.2645C17.1571 11.2634 17.1022 11.2624 17.0457 11.2613C16.9107 11.2585 16.7756 11.2543 16.6406 11.2499C16.6406 11.5592 16.6406 11.8686 16.6406 12.1874C16.7076 12.1868 16.7746 12.1863 16.8437 12.1858C17.4748 12.181 18.1059 12.1775 18.737 12.1752C19.0615 12.174 19.386 12.1723 19.7104 12.1697C20.0235 12.1671 20.3365 12.1657 20.6496 12.1651C20.7691 12.1647 20.8886 12.1638 21.0081 12.1626C21.1754 12.1609 21.3425 12.1606 21.5098 12.1607C21.5593 12.1599 21.6089 12.1591 21.66 12.1582C21.883 12.1598 21.9949 12.161 22.1793 12.2948C22.3007 12.4734 22.2923 12.6019 22.2885 12.8163C22.2877 12.8922 22.287 12.9681 22.2862 13.0463C22.2842 13.1262 22.2823 13.2061 22.2803 13.286C22.2791 13.3668 22.278 13.4476 22.277 13.5284C22.2743 13.7259 22.2704 13.9234 22.2656 14.1209C22.3205 14.129 22.3754 14.1371 22.432 14.1454C22.8447 14.2214 23.1745 14.5186 23.4082 14.857C23.7105 15.336 23.7278 15.8572 23.6719 16.4061C23.5575 16.9085 23.2794 17.2861 22.8515 17.567C22.3472 17.8749 21.7194 17.9014 21.1512 17.7721C20.6374 17.5826 20.2796 17.2479 20.039 16.7577C19.8614 16.3169 19.845 15.7659 19.9642 15.3047C20.0193 15.1752 20.0812 15.0602 20.1562 14.9413C20.1768 14.9049 20.1973 14.8684 20.2185 14.8309C20.4031 14.5348 20.6644 14.3323 20.9765 14.1795C21.1506 14.1505 21.1506 14.1505 21.3281 14.1209C21.3281 13.7922 21.3281 13.4635 21.3281 13.1249C19.7812 13.1249 18.2344 13.1249 16.6406 13.1249C16.6406 13.4536 16.6406 13.7823 16.6406 14.1209C16.8146 14.1499 16.8146 14.1499 16.9922 14.1795C17.4744 14.4265 17.7936 14.7815 17.996 15.2807C18.1329 15.7869 18.1142 16.3932 17.8862 16.8684C17.5946 17.3574 17.1911 17.6614 16.6406 17.8124C15.9902 17.8709 15.4257 17.8328 14.8938 17.4168C14.5381 17.0846 14.3205 16.6714 14.2772 16.1852C14.267 15.7281 14.281 15.3379 14.5312 14.9413C14.5518 14.9049 14.5723 14.8684 14.5935 14.8309C14.7781 14.5348 15.0394 14.3323 15.3515 14.1795C15.4676 14.1602 15.5836 14.1409 15.7031 14.1209C15.7031 13.7922 15.7031 13.4635 15.7031 13.1249C14.1562 13.1249 12.6094 13.1249 11.0156 13.1249C11.0156 13.4536 11.0156 13.7823 11.0156 14.1209C11.1896 14.1499 11.1896 14.1499 11.3672 14.1795C11.8494 14.4265 12.1686 14.7815 12.371 15.2807C12.5079 15.7869 12.4892 16.3932 12.2612 16.8684C11.9696 17.3574 11.5661 17.6614 11.0156 17.8124C10.3652 17.8709 9.80069 17.8328 9.26878 17.4168C8.91308 17.0846 8.6955 16.6714 8.65217 16.1852C8.64202 15.7281 8.65605 15.3379 8.90623 14.9413C8.92677 14.9049 8.94732 14.8684 8.96848 14.8309C9.15308 14.5348 9.41437 14.3323 9.72654 14.1795C9.84343 14.1583 9.96061 14.1385 10.0781 14.1209C10.0769 14.0707 10.0756 14.0205 10.0744 13.9687C10.0704 13.7817 10.0674 13.5948 10.0652 13.4078C10.0641 13.327 10.0625 13.2462 10.0604 13.1654C10.0576 13.0491 10.0564 12.9327 10.0552 12.8163C10.054 12.7464 10.0528 12.6764 10.0515 12.6043C10.0781 12.4217 10.0781 12.4217 10.1644 12.2948C10.3826 12.1365 10.5707 12.1563 10.8339 12.1607C10.8865 12.1607 10.9392 12.1607 10.9934 12.1606C11.1671 12.1608 11.3408 12.1626 11.5146 12.1645C11.6351 12.1649 11.7556 12.1652 11.8761 12.1655C12.1933 12.1664 12.5104 12.1687 12.8275 12.1713C13.1511 12.1737 13.4747 12.1747 13.7983 12.1759C14.4333 12.1784 15.0682 12.1824 15.7031 12.1874C15.7031 11.878 15.7031 11.5686 15.7031 11.2499C15.6212 11.2526 15.5394 11.2553 15.455 11.2581C15.3473 11.2603 15.2395 11.2624 15.1318 11.2645C15.0779 11.2665 15.024 11.2684 14.9684 11.2704C14.8902 11.2716 14.8902 11.2716 14.8105 11.2727C14.7387 11.2746 14.7387 11.2746 14.6654 11.2765C14.4787 11.2394 14.4161 11.1618 14.2969 11.0155C14.2671 10.8643 14.2671 10.8643 14.2665 10.6914C14.2658 10.6265 14.265 10.5615 14.2643 10.4947C14.2648 10.4248 14.2652 10.355 14.2657 10.2831C14.2654 10.1751 14.2654 10.1751 14.265 10.065C14.2649 9.91295 14.2653 9.76086 14.2663 9.60877C14.2676 9.37573 14.2663 9.1428 14.2648 8.90976C14.265 8.76206 14.2653 8.61435 14.2657 8.46665C14.2653 8.39682 14.2648 8.32699 14.2643 8.25505C14.265 8.19013 14.2658 8.12521 14.2665 8.05832C14.2667 8.00126 14.2669 7.9442 14.2671 7.8854C14.3328 7.55144 14.5391 7.47056 14.8553 7.46952ZM15.2344 8.43735C15.2344 9.0561 15.2344 9.67485 15.2344 10.3124C15.8531 10.3124 16.4719 10.3124 17.1094 10.3124C17.1094 9.6936 17.1094 9.07485 17.1094 8.43735C16.4906 8.43735 15.8719 8.43735 15.2344 8.43735ZM9.76316 15.4466C9.63402 15.7149 9.62124 15.9377 9.66795 16.2303C9.80445 16.5138 9.97037 16.6798 10.2539 16.8163C10.5465 16.863 10.7694 16.8502 11.0376 16.721C11.2476 16.531 11.4021 16.3789 11.4482 16.0898C11.4632 15.7568 11.422 15.5477 11.1914 15.2928C10.9365 15.0622 10.7275 15.021 10.3944 15.036C10.1053 15.0822 9.95317 15.2366 9.76316 15.4466ZM15.3882 15.4466C15.259 15.7149 15.2462 15.9377 15.2929 16.2303C15.4295 16.5138 15.5954 16.6798 15.8789 16.8163C16.1715 16.863 16.3944 16.8502 16.6626 16.721C16.8726 16.531 17.0271 16.3789 17.0732 16.0898C17.0882 15.7568 17.047 15.5477 16.8164 15.2928C16.5615 15.0622 16.3525 15.021 16.0194 15.036C15.7303 15.0822 15.5782 15.2366 15.3882 15.4466ZM21.0132 15.4466C20.884 15.7149 20.8712 15.9377 20.9179 16.2303C21.0545 16.5138 21.2204 16.6798 21.5039 16.8163C21.7965 16.863 22.0194 16.8502 22.2876 16.721C22.4976 16.531 22.6521 16.3789 22.6982 16.0898C22.7132 15.7568 22.672 15.5477 22.4414 15.2928C22.1865 15.0622 21.9775 15.021 21.6444 15.036C21.3553 15.0822 21.2032 15.2366 21.0132 15.4466Z" fill="#2A5AAE"/>
<path d="M6.67966 3.33983C6.82454 3.49762 6.90437 3.67633 6.99094 3.87084C7.01454 3.91975 7.03814 3.96865 7.06246 4.01904C7.2468 4.40236 7.2468 4.40236 7.31626 4.58996C7.41014 4.8286 7.41014 4.8286 7.61076 4.97398C7.74998 5.0069 7.88498 5.02491 8.02731 5.03905C8.12651 5.05284 8.22569 5.06673 8.32486 5.08071C8.47736 5.10058 8.62984 5.11984 8.78262 5.13747C9.08066 5.17745 9.27886 5.21931 9.49216 5.44921C9.56859 5.69201 9.5774 5.80608 9.46286 6.03515C9.18507 6.36849 8.87497 6.65466 8.54276 6.93305C8.42845 7.03965 8.34333 7.13183 8.26169 7.26562C8.25875 7.41115 8.25875 7.41115 8.29579 7.56476C8.30693 7.62243 8.31807 7.6801 8.32955 7.73952C8.3422 7.79945 8.35485 7.85938 8.36789 7.92113C8.58419 8.98352 8.58419 8.98352 8.41183 9.29076C8.18744 9.41664 7.98225 9.41569 7.73434 9.37499C7.43143 9.24884 7.15357 9.07702 6.87089 8.9115C6.8136 8.8794 6.75631 8.8473 6.69728 8.81423C6.64602 8.78416 6.59476 8.75409 6.54194 8.72311C6.29277 8.64087 6.12627 8.74333 5.90139 8.85614C5.85994 8.88008 5.8185 8.90401 5.7758 8.92867C5.72909 8.95473 5.68237 8.98079 5.63424 9.00764C5.53805 9.06193 5.44222 9.11686 5.34676 9.17243C5.0317 9.34631 4.75716 9.44579 4.3945 9.37499C4.24435 9.2578 4.24435 9.2578 4.16013 9.08202C4.13817 8.79624 4.16684 8.56407 4.23817 8.28666C4.41571 7.67888 4.41571 7.67888 4.33745 7.07338C4.14854 6.80991 3.8964 6.6285 3.63278 6.4453C3.55016 6.37672 3.46813 6.3074 3.38742 6.23656C3.33304 6.18943 3.27866 6.1423 3.22263 6.09374C3.11915 5.92414 3.10541 5.86071 3.1091 5.65429C3.17614 5.404 3.24332 5.35459 3.457 5.21483C3.6327 5.1695 3.6327 5.1695 3.8255 5.14686C3.89514 5.13783 3.96478 5.1288 4.03653 5.1195C4.14484 5.10687 4.14484 5.10687 4.25534 5.09398C4.39901 5.07688 4.5426 5.05914 4.6861 5.04065C4.74959 5.03325 4.81308 5.02584 4.8785 5.01821C5.05603 4.97646 5.10884 4.94992 5.21481 4.80468C5.27249 4.6996 5.32635 4.59239 5.37755 4.48401C5.40765 4.42166 5.43775 4.35931 5.46876 4.29507C5.53144 4.16352 5.59385 4.03184 5.65598 3.90002C5.68616 3.83775 5.71633 3.77547 5.74742 3.71131C5.77453 3.65413 5.80164 3.59695 5.82958 3.53803C6.02616 3.22745 6.3553 3.21351 6.67966 3.33983ZM6.2695 4.98046C6.23019 5.05988 6.23019 5.05988 6.19008 5.14091C6.15434 5.21074 6.11856 5.28054 6.08273 5.35033C6.04806 5.41899 6.0134 5.48765 5.97768 5.55839C5.85082 5.75541 5.77982 5.82719 5.56638 5.91796C5.35832 5.96076 5.35832 5.96076 5.13791 5.98754C5.06442 5.99683 4.99093 6.00612 4.91521 6.01569C4.83148 6.02532 4.83148 6.02532 4.74606 6.03515C4.8338 6.25063 4.95867 6.35846 5.13425 6.50756C5.28707 6.65671 5.37898 6.74642 5.42722 6.95594C5.42722 7.1215 5.41357 7.27749 5.39059 7.4414C5.38561 7.49359 5.38062 7.54578 5.37549 7.59955C5.36348 7.72288 5.34811 7.84588 5.332 7.96874C5.38155 7.94336 5.4311 7.91798 5.48215 7.89184C6.23019 7.52461 6.23019 7.52461 6.56247 7.61718C6.823 7.72212 7.07426 7.84073 7.32419 7.96874C7.31452 7.89502 7.30485 7.8213 7.29489 7.74535C7.29036 7.69709 7.28583 7.64882 7.28116 7.5991C7.2708 7.49414 7.25675 7.38949 7.23904 7.28553C7.20705 6.99299 7.22119 6.85252 7.40933 6.61674C7.52436 6.49917 7.64517 6.39012 7.76913 6.28211C7.81566 6.23928 7.86219 6.19646 7.91013 6.15233C7.91013 6.11366 7.91013 6.07499 7.91013 6.03515C7.80635 6.02121 7.80635 6.02121 7.70047 6.00699C7.60921 5.99325 7.51797 5.97944 7.42673 5.96557C7.38118 5.95964 7.33564 5.95371 7.28871 5.9476C7.06131 5.91164 6.94459 5.88872 6.77487 5.7257C6.68245 5.57107 6.59648 5.41753 6.51852 5.25512C6.49345 5.20338 6.46837 5.15164 6.44254 5.09833C6.42411 5.05943 6.40568 5.02054 6.38669 4.98046C6.34802 4.98046 6.30935 4.98046 6.2695 4.98046Z" fill="#2A5AAE"/>
<path d="M10.0781 18.75C10.4068 18.75 10.7355 18.75 11.0742 18.75C11.0742 18.982 11.0742 19.2141 11.0742 19.4531C11.1528 19.4725 11.2313 19.4918 11.3123 19.5117C11.7191 19.6475 11.9245 19.9349 12.1216 20.3027C12.1875 20.5078 12.1875 20.5078 12.2461 20.9766C11.9174 20.9766 11.5887 20.9766 11.25 20.9766C11.1947 20.8564 11.1394 20.7362 11.0841 20.6161C11.0194 20.4885 11.0194 20.4885 10.8398 20.4492C10.7423 20.4438 10.6446 20.4416 10.5469 20.4419C10.4961 20.4417 10.4454 20.4416 10.3931 20.4414C10.2451 20.4436 10.2451 20.4436 10.0781 20.5078C9.95078 20.6988 9.94633 20.7557 9.94995 20.9766C9.95032 21.0273 9.9507 21.0781 9.95109 21.1304C9.95576 21.2783 9.95576 21.2783 10.0195 21.4453C10.2106 21.5165 10.4025 21.5105 10.6049 21.5149C11.0388 21.5268 11.391 21.5396 11.7187 21.8555C11.7472 21.8829 11.7757 21.9103 11.805 21.9386C12.1378 22.3004 12.2454 22.7243 12.2461 23.2031C12.2041 23.6643 12.0099 24.0546 11.6675 24.3677C11.4632 24.5066 11.313 24.5568 11.0742 24.6094C11.0742 24.8414 11.0742 25.0734 11.0742 25.3125C10.7455 25.3125 10.4168 25.3125 10.0781 25.3125C10.0781 25.0805 10.0781 24.8484 10.0781 24.6094C10.0298 24.607 9.98144 24.6045 9.93164 24.6021C9.55449 24.5078 9.29313 24.2788 9.08569 23.9539C8.90348 23.6407 8.90625 23.4797 8.90625 23.0859C9.23496 23.0859 9.56367 23.0859 9.90234 23.0859C9.94101 23.2406 9.97968 23.3953 10.0195 23.5547C10.2117 23.6027 10.3525 23.6228 10.5469 23.6243C10.5964 23.6251 10.646 23.6259 10.697 23.6268C10.8514 23.6122 10.9439 23.579 11.0742 23.4961C11.2199 23.2533 11.1929 23.0632 11.1328 22.793C11.0319 22.6026 11.0319 22.6026 10.8398 22.5586C10.7315 22.5532 10.6232 22.548 10.5148 22.5446C10.0516 22.5286 9.68415 22.4978 9.33403 22.1734C8.94114 21.7501 8.86285 21.3041 8.88221 20.7397C8.92669 20.3106 9.08741 20.0066 9.40429 19.7168C9.61955 19.5511 9.80218 19.4531 10.0781 19.4531C10.0781 19.2211 10.0781 18.9891 10.0781 18.75Z" fill="#2A5AAE"/>
<path d="M13.3594 22.5C16.7625 22.5 20.1656 22.5 23.6719 22.5C23.6719 22.8094 23.6719 23.1187 23.6719 23.4375C20.2687 23.4375 16.8656 23.4375 13.3594 23.4375C13.3594 23.1281 13.3594 22.8187 13.3594 22.5Z" fill="#2A5AAE"/>
<path d="M13.3594 18.75C16.7625 18.75 20.1656 18.75 23.6719 18.75C23.6719 19.0594 23.6719 19.3687 23.6719 19.6875C20.2687 19.6875 16.8656 19.6875 13.3594 19.6875C13.3594 19.3781 13.3594 19.0687 13.3594 18.75Z" fill="#2A5AAE"/>
<path d="M13.3594 24.375C14.7516 24.375 16.1437 24.375 17.5781 24.375C17.5781 24.6844 17.5781 24.9937 17.5781 25.3125C16.1859 25.3125 14.7937 25.3125 13.3594 25.3125C13.3594 25.0031 13.3594 24.6937 13.3594 24.375Z" fill="#2A5AAE"/>
<path d="M13.3594 20.625C14.7516 20.625 16.1437 20.625 17.5781 20.625C17.5781 20.9344 17.5781 21.2437 17.5781 21.5625C16.1859 21.5625 14.7937 21.5625 13.3594 21.5625C13.3594 21.2531 13.3594 20.9437 13.3594 20.625Z" fill="#2A5AAE"/>
<path d="M16.4062 1.8751C16.5527 1.96299 16.5527 1.96299 16.6406 2.10948C16.687 2.34508 16.677 2.51753 16.5527 2.72471C16.3455 2.84902 16.1731 2.85895 15.9375 2.8126C15.791 2.72471 15.791 2.72471 15.7031 2.57823C15.6568 2.34262 15.6667 2.17017 15.791 1.96299C15.9982 1.83868 16.1706 1.82875 16.4062 1.8751Z" fill="#2A5AAE"/>
</svg>
