<svg width="29" height="30" viewBox="0 0 29 30" fill="none" xmlns="http://www.w3.org/2000/svg">
<g clip-path="url(#clip0_395_112)">
<path d="M1.68829 -0.0157865C1.74673 -0.0162727 1.80516 -0.016759 1.86537 -0.01726C1.92974 -0.0171984 1.99411 -0.0171368 2.06044 -0.0170734C2.12869 -0.0174629 2.19694 -0.0178525 2.26726 -0.0182538C2.45702 -0.0192098 2.64678 -0.0196364 2.83655 -0.019835C3.04109 -0.0201721 3.24564 -0.0211755 3.45019 -0.022082C3.94433 -0.0241194 4.43848 -0.0250317 4.93262 -0.0258392C5.16532 -0.026247 5.39801 -0.0267836 5.6307 -0.0273104C6.40422 -0.0290217 7.17774 -0.0304744 7.95125 -0.031097C8.00077 -0.0311374 8.05029 -0.0311779 8.10131 -0.0312196C8.15095 -0.0312601 8.20058 -0.0313007 8.25173 -0.0313425C8.35231 -0.0314252 8.4529 -0.0315084 8.55348 -0.0315922C8.60338 -0.0316335 8.65327 -0.0316748 8.70467 -0.0317174C9.51292 -0.032435 10.3212 -0.0349421 11.1294 -0.0382098C11.9592 -0.0415373 12.7889 -0.0433226 13.6187 -0.0435781C14.0846 -0.0437587 14.5505 -0.044608 15.0164 -0.0471688C15.4132 -0.0493436 15.81 -0.0501146 16.2068 -0.0490611C16.4092 -0.048566 16.6115 -0.0487306 16.8139 -0.0506911C17.0336 -0.0524682 17.2531 -0.0517174 17.4727 -0.0503328C17.5683 -0.052005 17.5683 -0.052005 17.6658 -0.0537109C18.059 -0.0478063 18.2621 0.026807 18.5404 0.308546C18.5709 0.342005 18.6014 0.375463 18.6328 0.409935C18.6807 0.455314 18.7285 0.500693 18.7778 0.547448C18.8182 0.58782 18.8586 0.628192 18.9003 0.669788C18.947 0.716302 18.9937 0.762816 19.0418 0.81074C19.0904 0.859522 19.1391 0.908305 19.1892 0.958565C19.2405 1.00973 19.2917 1.06089 19.3444 1.11361C19.4518 1.22093 19.5591 1.32833 19.6663 1.4358C19.7763 1.54598 19.8863 1.65608 19.9965 1.76602C20.1561 1.92518 20.3154 2.08454 20.4746 2.24397C20.5241 2.29334 20.5736 2.34272 20.6246 2.39359C20.67 2.43918 20.7154 2.48477 20.7622 2.53174C20.8023 2.57188 20.8424 2.61202 20.8837 2.65337C21.0731 2.85799 21.0432 3.06115 21.0422 3.32541C21.0423 3.39662 21.0423 3.39662 21.0424 3.46927C21.0425 3.62924 21.0421 3.7892 21.0418 3.94916C21.0418 4.06348 21.0418 4.1778 21.0418 4.29211C21.0419 4.60323 21.0415 4.91434 21.0411 5.22545C21.0407 5.55029 21.0407 5.87514 21.0406 6.19999C21.0405 6.81547 21.04 7.43096 21.0394 8.04645C21.0387 8.74701 21.0384 9.44757 21.0381 10.1481C21.0375 11.5896 21.0365 13.031 21.0352 14.4724C21.1083 14.481 21.1814 14.4896 21.2567 14.4984C22.892 14.69 24.5877 15.951 25.5867 17.2024C26.6061 18.5223 27.2277 20.0648 27.3047 21.7381C27.3078 21.8013 27.3109 21.8645 27.3141 21.9296C27.3663 24.0246 26.6017 26.0384 25.1675 27.5613C23.793 28.9872 21.9503 29.9604 19.9402 30.0195C19.7778 30.0218 19.6155 30.0222 19.4531 30.0217C19.4107 30.0217 19.3683 30.0217 19.3246 30.0217C18.6228 30.0197 17.9617 29.9595 17.2852 29.7654C17.2462 29.7547 17.2072 29.7441 17.167 29.7331C16.0425 29.4196 15.0644 28.8145 14.1797 28.0662C14.1162 28.0161 14.0528 27.9661 13.9893 27.916C13.7096 27.6682 13.4637 27.408 13.3008 27.0701C13.2398 27.0704 13.1787 27.0706 13.1158 27.0709C11.6317 27.0774 10.1476 27.0822 8.66341 27.0853C7.94568 27.0868 7.22797 27.0888 6.51025 27.0922C5.88478 27.0951 5.25932 27.097 4.63385 27.0977C4.30257 27.098 3.97132 27.0989 3.64005 27.1011C3.32836 27.1031 3.01669 27.1037 2.70499 27.1032C2.5905 27.1033 2.47601 27.1039 2.36153 27.105C2.20534 27.1065 2.04925 27.1061 1.89305 27.1053C1.84763 27.1062 1.8022 27.107 1.75539 27.1079C1.52228 27.1047 1.4178 27.0793 1.23301 26.9324C1.04188 26.6845 1.04624 26.4724 1.047 26.1726C1.04688 26.1283 1.04676 26.0841 1.04663 26.0386C1.0463 25.8892 1.04638 25.7398 1.04647 25.5905C1.04632 25.4828 1.04614 25.3751 1.04594 25.2674C1.04547 24.9705 1.04536 24.6736 1.04532 24.3767C1.04521 24.0569 1.04477 23.7371 1.04437 23.4173C1.04358 22.7176 1.04322 22.0178 1.04297 21.3181C1.04281 20.8815 1.04256 20.4448 1.04229 20.0081C1.04158 18.7998 1.04098 17.5915 1.04078 16.3832C1.04076 16.3051 1.04075 16.2269 1.04074 16.1488C1.04073 16.0704 1.04071 15.9921 1.0407 15.9138C1.04067 15.7566 1.04065 15.5994 1.04062 15.4423C1.04061 15.4033 1.04061 15.3643 1.0406 15.3242C1.04039 14.0603 1.03946 12.7965 1.03809 11.5326C1.03665 10.1967 1.03585 8.8609 1.03577 7.52505C1.03572 6.7967 1.03538 6.06836 1.03432 5.34002C1.03342 4.71991 1.03312 4.09981 1.0336 3.47971C1.03383 3.16317 1.03377 2.84664 1.03295 2.53011C1.03221 2.24049 1.03227 1.95089 1.03299 1.66128C1.0331 1.55635 1.03292 1.45143 1.03241 1.3465C1.03177 1.20413 1.0322 1.0618 1.0329 0.919423C1.03246 0.878471 1.03201 0.837518 1.03156 0.795325C1.03443 0.527423 1.08782 0.343614 1.23048 0.116966C1.41972 -0.009193 1.4702 -0.0150197 1.68829 -0.0157865ZM2.28517 1.17165C2.28517 9.33142 2.28517 17.4912 2.28517 25.8982C5.64962 25.8982 9.01407 25.8982 12.4805 25.8982C12.2484 25.3471 12.2484 25.3471 12.0117 24.7849C11.8751 24.3304 11.7484 23.8861 11.6565 23.4217C11.6461 23.3696 11.6358 23.3175 11.6251 23.2637C11.6135 23.2046 11.6135 23.2046 11.6016 23.1443C11.5259 23.144 11.4502 23.1436 11.3722 23.1433C10.6592 23.1399 9.94618 23.1357 9.23317 23.1305C8.8666 23.1279 8.50003 23.1256 8.13345 23.124C7.77975 23.1225 7.42605 23.1201 7.07235 23.1172C6.93735 23.1162 6.80234 23.1155 6.66734 23.1152C6.47836 23.1146 6.28943 23.1129 6.10047 23.1111C6.01658 23.1112 6.01658 23.1112 5.93099 23.1113C5.64612 23.1073 5.44314 23.1001 5.21485 22.9099C5.07027 22.6931 5.07967 22.5805 5.09767 22.324C5.1482 22.1682 5.18031 22.1105 5.3204 22.0259C5.46043 21.9678 5.55777 21.9572 5.70876 21.9561C5.78615 21.9551 5.78615 21.9551 5.86511 21.9541C5.92125 21.954 5.97738 21.9539 6.03522 21.9538C6.09469 21.9532 6.15416 21.9526 6.21544 21.952C6.412 21.9502 6.60856 21.9492 6.80512 21.9482C6.94141 21.9471 7.0777 21.9459 7.21399 21.9447C7.57271 21.9417 7.93143 21.9394 8.29015 21.9372C8.6562 21.9349 9.02224 21.9319 9.38828 21.9289C10.1065 21.9233 10.8247 21.9183 11.543 21.9138C11.5477 21.8779 11.5524 21.8419 11.5573 21.8048C11.5791 21.6385 11.6013 21.4722 11.6235 21.3059C11.6309 21.2494 11.6383 21.1928 11.646 21.1345C11.6955 20.7659 11.7582 20.4025 11.8359 20.0388C11.8032 20.0386 11.7705 20.0385 11.7369 20.0383C10.9412 20.0335 10.1456 20.0281 9.34992 20.022C8.96515 20.0191 8.58038 20.0164 8.19561 20.0141C7.82443 20.012 7.45326 20.0092 7.08208 20.0061C6.94032 20.0051 6.79856 20.0042 6.6568 20.0035C6.45857 20.0025 6.26035 20.0008 6.06212 19.9989C5.9738 19.9987 5.9738 19.9987 5.8837 19.9985C5.82964 19.9979 5.77558 19.9972 5.71988 19.9966C5.64956 19.9961 5.64956 19.9961 5.57781 19.9956C5.43314 19.9783 5.3389 19.9385 5.21485 19.8631C5.06581 19.6619 5.08032 19.4614 5.09767 19.2185C5.14782 19.0639 5.18026 19.0054 5.31859 18.9204C5.4678 18.8594 5.57674 18.8517 5.73767 18.8507C5.79568 18.85 5.85368 18.8493 5.91345 18.8487C5.97671 18.8485 6.03997 18.8484 6.10515 18.8483C6.17205 18.8477 6.23895 18.8471 6.30787 18.8465C6.52917 18.8447 6.75045 18.8437 6.97175 18.8427C7.12512 18.8416 7.27848 18.8405 7.43185 18.8393C7.79437 18.8365 8.15689 18.8344 8.51941 18.8324C8.93219 18.8302 9.34497 18.8273 9.75774 18.8243C10.6067 18.8183 11.4557 18.8131 12.3047 18.8084C12.3353 18.7494 12.3658 18.6905 12.3973 18.6298C12.4387 18.5509 12.4801 18.472 12.5214 18.3932C12.5414 18.3545 12.5614 18.3158 12.582 18.276C12.7537 17.9503 12.9561 17.6668 13.1847 17.3779C13.2945 17.2346 13.3852 17.0887 13.4766 16.9334C13.4354 16.9332 13.3943 16.933 13.3519 16.9328C12.3508 16.928 11.3498 16.9226 10.3488 16.9165C9.86473 16.9136 9.38065 16.9109 8.89656 16.9087C8.47467 16.9067 8.05279 16.9044 7.6309 16.9016C7.40748 16.9001 7.18406 16.8988 6.96064 16.898C6.75037 16.8973 6.54012 16.896 6.32986 16.8943C6.21585 16.8935 6.10183 16.8933 5.98782 16.8931C5.91995 16.8924 5.85208 16.8918 5.78216 16.8911C5.72318 16.8908 5.6642 16.8904 5.60343 16.8901C5.44107 16.874 5.34845 16.8506 5.21485 16.7576C5.05476 16.5478 5.08133 16.2995 5.08279 16.0473C5.0826 15.9989 5.08242 15.9505 5.08223 15.9007C5.08176 15.7384 5.08213 15.5761 5.0825 15.4138C5.08234 15.2976 5.08214 15.1813 5.08188 15.065C5.08135 14.7491 5.08155 14.4331 5.08192 14.1172C5.08222 13.7868 5.08195 13.4564 5.08176 13.1261C5.08155 12.5712 5.08183 12.0164 5.08239 11.4616C5.08303 10.8197 5.08282 10.1779 5.08217 9.53604C5.08164 8.98538 5.08157 8.43472 5.08187 7.88406C5.08206 7.55499 5.08208 7.22593 5.08169 6.89686C5.08136 6.58753 5.08159 6.2782 5.08227 5.96886C5.08242 5.8552 5.08238 5.74154 5.08212 5.62787C5.0818 5.47298 5.0822 5.31811 5.08279 5.16322C5.08252 5.11801 5.08226 5.0728 5.08199 5.02622C5.08496 4.62313 5.08496 4.62313 5.21485 4.4529C5.42069 4.29825 5.6559 4.319 5.90254 4.32005C5.97144 4.31965 5.97144 4.31965 6.04173 4.31924C6.19579 4.3185 6.34984 4.3186 6.5039 4.31869C6.6143 4.31834 6.72469 4.31794 6.83509 4.3175C7.13508 4.31646 7.43506 4.31619 7.73505 4.31612C7.98536 4.31601 8.23567 4.31557 8.48599 4.31516C9.07644 4.3142 9.66688 4.31392 10.2573 4.314C10.8668 4.31407 11.4762 4.31283 12.0856 4.31098C12.6086 4.30945 13.1316 4.30882 13.6546 4.3089C13.967 4.30893 14.2795 4.30859 14.592 4.30735C14.8858 4.30622 15.1796 4.30621 15.4734 4.30706C15.5812 4.30719 15.6891 4.30691 15.797 4.3062C15.9442 4.3053 16.0913 4.30584 16.2385 4.30674C16.2812 4.30614 16.324 4.30554 16.3681 4.30492C16.5741 4.30772 16.6934 4.33217 16.8708 4.44007C17.0891 4.6739 17.0584 4.89293 17.0601 5.20413C17.0604 5.24429 17.0606 5.28445 17.0609 5.32583C17.0618 5.46032 17.0623 5.59482 17.0628 5.72932C17.0634 5.82576 17.064 5.9222 17.0646 6.01864C17.0662 6.28047 17.0674 6.5423 17.0686 6.80414C17.0698 7.07776 17.0714 7.35139 17.073 7.62501C17.0759 8.14317 17.0786 8.66133 17.0811 9.17948C17.084 9.76939 17.0872 10.3593 17.0905 10.9492C17.0971 12.1627 17.1034 13.3761 17.1094 14.5896C17.22 14.5715 17.3306 14.5532 17.4413 14.5349C17.5029 14.5248 17.5645 14.5146 17.6279 14.5042C17.7951 14.4754 17.9612 14.4435 18.1275 14.4102C18.4787 14.3503 18.8291 14.3368 19.1844 14.3225C19.2442 14.32 19.3039 14.3174 19.3654 14.3148C19.5118 14.3086 19.6583 14.3025 19.8047 14.2967C19.8557 12.9057 19.8938 11.5148 19.917 10.1231C19.9281 9.4766 19.9432 8.83067 19.9682 8.18452C19.9901 7.62015 20.0039 7.05619 20.0087 6.49141C20.0115 6.19308 20.0178 5.89597 20.0339 5.59804C20.1013 4.29387 19.9542 3.26164 19.0664 2.24992C18.1753 1.30468 17.2665 0.968809 15.9814 0.925534C15.4629 0.915546 14.946 0.927462 14.4279 0.94749C14.0049 0.963468 13.5823 0.964856 13.159 0.966554C12.0476 0.977835 10.9365 1.0081 9.82545 1.03616C7.33716 1.08087 4.84886 1.12558 2.28517 1.17165ZM6.26954 5.50759C6.26954 8.87204 6.26954 12.2365 6.26954 15.7029C8.39589 15.7156 8.39589 15.7156 10.5652 15.7285C11.2355 15.7341 11.2355 15.7341 11.9193 15.7399C12.3215 15.7412 12.3215 15.7412 12.7236 15.7421C12.9021 15.7424 13.0805 15.744 13.259 15.7462C13.4874 15.749 13.7156 15.7499 13.9439 15.7493C14.0273 15.7494 14.1107 15.7502 14.1941 15.7518C14.7821 15.7625 15.1199 15.6455 15.5859 15.2927C15.6395 15.2673 15.693 15.2419 15.7481 15.2157C15.8966 15.1261 15.8966 15.1261 15.915 14.9453C15.9146 14.8392 15.9146 14.8392 15.9141 14.731C15.9144 14.6917 15.9146 14.6524 15.9149 14.6119C15.9154 14.4796 15.9138 14.3473 15.9122 14.2149C15.9121 14.1187 15.9121 14.0224 15.9123 13.9262C15.9123 13.6681 15.9106 13.41 15.9086 13.152C15.9069 12.9099 15.9068 12.6679 15.9066 12.4259C15.9051 11.7177 15.901 11.0095 15.8972 10.3013C15.8912 8.71937 15.8851 7.13745 15.8789 5.50759C12.7078 5.50759 9.53673 5.50759 6.26954 5.50759ZM14.3793 17.7766C13.1859 19.1419 12.6816 20.8845 12.7611 22.677C12.8621 24.0991 13.4483 25.494 14.4141 26.5427C14.4422 26.5733 14.4703 26.6039 14.4992 26.6354C15.7429 27.9737 17.382 28.7358 19.214 28.8279C21.0107 28.8528 22.6296 28.1911 23.9649 27.0115C24.0049 26.9764 24.0449 26.9413 24.0862 26.9051C25.3371 25.7326 26.0038 24.0311 26.0816 22.3405C26.1216 20.4777 25.4015 18.8108 24.1406 17.4607C23.2953 16.6154 22.2445 16.0184 21.0938 15.7029C21.0296 15.6842 20.9654 15.6656 20.8992 15.6464C18.504 15.0544 16.008 15.9928 14.3793 17.7766Z" fill="#2A5AAE" stroke="#2A5AAE" stroke-width="0.2"/>
<path d="M18.8086 17.1682C18.9119 17.2346 18.9119 17.2346 19.013 17.3282C19.0738 17.3844 19.0738 17.3844 19.1359 17.4417C19.44 17.7354 19.7402 18.0328 20.0388 18.3321C20.1116 18.4048 20.1843 18.4775 20.2571 18.5501C20.4086 18.7016 20.56 18.8531 20.7114 19.0047C20.9056 19.1993 21.1001 19.3936 21.2946 19.5878C21.4444 19.7374 21.5942 19.8872 21.7438 20.037C21.8155 20.1087 21.8873 20.1804 21.9591 20.2521C22.0589 20.3518 22.1586 20.4517 22.2582 20.5516C22.2879 20.5812 22.3176 20.6108 22.3483 20.6413C22.5443 20.8386 22.6123 20.917 22.6355 21.2002C22.6337 21.3947 22.6175 21.445 22.5073 21.6176C22.3828 21.7385 22.3828 21.7385 22.2656 21.7971C22.2284 21.7944 22.1912 21.7917 22.1528 21.7889C21.861 21.7755 21.6869 21.8341 21.4716 22.0289C21.2789 22.2178 21.097 22.4156 20.918 22.6174C20.9984 22.7981 21.09 22.9208 21.2304 23.0594C21.2701 23.0989 21.3098 23.1384 21.3507 23.1791C21.4149 23.2421 21.4149 23.2421 21.4803 23.3063C21.5242 23.3499 21.5682 23.3936 21.6134 23.4385C21.7536 23.5777 21.8942 23.7165 22.0349 23.8552C22.1757 23.9944 22.3165 24.1337 22.457 24.2732C22.5445 24.3599 22.6322 24.4465 22.72 24.533C22.7595 24.5721 22.799 24.6112 22.8397 24.6515C22.8746 24.6859 22.9095 24.7204 22.9455 24.7558C23.1163 24.9397 23.105 25.1156 23.1031 25.356C23.0779 25.5503 22.9916 25.6496 22.8516 25.7815C22.658 25.8783 22.4733 25.8847 22.2656 25.8401C22.1536 25.7629 22.1536 25.7629 22.0429 25.6605C22.0023 25.6231 21.9616 25.5858 21.9197 25.5473C21.7286 25.3647 21.5399 25.1802 21.3538 24.9925C21.2943 24.9329 21.2943 24.9329 21.2336 24.8721C21.1087 24.7469 20.984 24.6215 20.8594 24.4961C20.774 24.4104 20.6886 24.3248 20.6033 24.2391C20.3955 24.0308 20.1879 23.8222 19.9805 23.6135C19.9525 23.6375 19.9246 23.6615 19.8958 23.6862C19.8406 23.7335 19.8406 23.7335 19.7843 23.7818C19.7479 23.813 19.7115 23.8442 19.674 23.8764C19.5921 23.9464 19.51 24.016 19.4277 24.0855C19.1947 24.2853 19.1947 24.2853 19.0782 24.5576C19.083 24.6728 19.0921 24.7877 19.1016 24.9026C19.0067 25.1161 18.8994 25.2615 18.6914 25.3713C18.3889 25.4043 18.2349 25.3664 17.9883 25.1955C17.8663 25.0841 17.7493 24.972 17.6332 24.8547C17.599 24.8206 17.5648 24.7865 17.5295 24.7513C17.4169 24.639 17.3048 24.5262 17.1927 24.4134C17.1144 24.3351 17.0362 24.2568 16.9579 24.1786C16.7942 24.0148 16.6307 23.8508 16.4674 23.6867C16.2577 23.476 16.0476 23.2657 15.8374 23.0556C15.676 22.8941 15.5146 22.7324 15.3534 22.5708C15.276 22.4931 15.1985 22.4156 15.121 22.338C15.013 22.2299 14.9051 22.1215 14.7974 22.0131C14.7652 21.981 14.733 21.9488 14.6998 21.9156C14.4957 21.7098 14.4047 21.5995 14.3921 21.31C14.3935 21.0855 14.4059 21.0457 14.5532 20.8596C14.7562 20.7049 14.8138 20.6819 15.0567 20.7144C15.4015 20.7167 15.5667 20.5336 15.8044 20.3028C15.8581 20.2478 15.9117 20.1929 15.967 20.1363C16.024 20.0796 16.081 20.0229 16.1382 19.9663C16.2573 19.8477 16.3754 19.7282 16.4928 19.6081C16.6431 19.4545 16.7954 19.3033 16.9486 19.1526C17.0666 19.036 17.1835 18.9184 17.3001 18.8003C17.3828 18.7169 17.4665 18.6344 17.5501 18.5519C17.8627 18.2493 17.8627 18.2493 17.959 17.8456C17.9493 17.7767 17.9396 17.7079 17.9297 17.6369C18.1026 17.1923 18.3556 17.0845 18.8086 17.1682ZM18.6966 19.0825C18.6511 19.1283 18.6055 19.1741 18.5586 19.2213C18.4812 19.2987 18.4812 19.2987 18.4022 19.3777C18.3459 19.4346 18.2895 19.4916 18.2332 19.5486C18.1756 19.6064 18.1179 19.6642 18.0603 19.722C17.9084 19.8743 17.7569 20.027 17.6054 20.1797C17.4509 20.3354 17.296 20.4908 17.1412 20.6463C16.8373 20.9514 16.5338 21.257 16.2305 21.5627C16.3074 21.733 16.3899 21.8537 16.5223 21.9851C16.5751 22.0378 16.5751 22.0378 16.6289 22.0917C16.6857 22.1475 16.6857 22.1475 16.7436 22.2045C16.7825 22.2432 16.8213 22.2819 16.8614 22.3217C16.9853 22.445 17.1096 22.5678 17.2339 22.6906C17.3181 22.7742 17.4022 22.8579 17.4863 22.9415C17.6924 23.1463 17.8988 23.3507 18.1055 23.5549C18.3074 23.468 18.4379 23.3539 18.5924 23.1985C18.6662 23.1246 18.6662 23.1246 18.7416 23.0492C18.7942 22.996 18.8468 22.9428 18.9011 22.8879C18.9825 22.8063 18.9825 22.8063 19.0656 22.7229C19.2096 22.5785 19.3532 22.4337 19.4967 22.2889C19.6434 22.141 19.7904 21.9934 19.9374 21.8458C20.2255 21.5565 20.5133 21.2667 20.8008 20.9768C20.724 20.8074 20.6418 20.6859 20.5108 20.5544C20.476 20.5193 20.4412 20.4841 20.4053 20.4478C20.3678 20.4106 20.3304 20.3734 20.2917 20.335C20.2339 20.277 20.2339 20.277 20.1749 20.2178C20.0934 20.1363 20.0119 20.0549 19.9302 19.9737C19.8047 19.8489 19.6799 19.7235 19.5552 19.598C19.4761 19.5189 19.3969 19.4399 19.3176 19.3609C19.2614 19.3043 19.2614 19.3043 19.2041 19.2466C18.9732 18.9726 18.9732 18.9726 18.6966 19.0825Z" fill="#2A5AAE"/>
<path d="M9.28982 6.83947C9.33265 6.83917 9.37548 6.83887 9.4196 6.83856C9.56029 6.83775 9.70097 6.8378 9.84167 6.83794C9.94003 6.83771 10.0384 6.83746 10.1367 6.83718C10.3426 6.83674 10.5484 6.83676 10.7542 6.83707C11.0173 6.8374 11.2804 6.83641 11.5434 6.83505C11.7465 6.83419 11.9495 6.83414 12.1525 6.83432C12.2495 6.83429 12.3465 6.83399 12.4434 6.83339C12.5793 6.83267 12.7151 6.83307 12.851 6.83375C12.9281 6.83371 13.0053 6.83367 13.0847 6.83363C13.3354 6.85908 13.4883 6.91555 13.7109 7.03134C13.9385 7.32969 13.9122 7.6608 13.91 8.02011C13.9102 8.08121 13.9104 8.1423 13.9106 8.20525C13.9107 8.33408 13.9104 8.46291 13.9096 8.59174C13.9087 8.78849 13.9096 8.98517 13.9107 9.18192C13.9106 9.30734 13.9104 9.43277 13.91 9.5582C13.9104 9.6168 13.9108 9.6754 13.9111 9.73578C13.908 10.0485 13.8926 10.2798 13.7109 10.547C13.4921 10.6929 13.3214 10.6815 13.068 10.6812C13.0205 10.6816 12.9729 10.682 12.9239 10.6824C12.7665 10.6835 12.609 10.6837 12.4516 10.6838C12.3422 10.6842 12.2328 10.6846 12.1234 10.685C11.894 10.6857 11.6646 10.6859 11.4351 10.6859C11.1412 10.6859 10.8473 10.6875 10.5534 10.6895C10.3274 10.6908 10.1014 10.691 9.87542 10.691C9.76707 10.6911 9.65872 10.6916 9.55038 10.6925C9.39874 10.6937 9.24718 10.6933 9.09554 10.6926C9.05085 10.6933 9.00616 10.6939 8.96011 10.6946C8.67152 10.6912 8.52236 10.6364 8.32029 10.4298C8.24782 10.2848 8.25309 10.1864 8.25133 10.0242C8.25058 9.9642 8.24982 9.90415 8.24905 9.84229C8.24862 9.77716 8.24818 9.71204 8.24774 9.64494C8.24726 9.57818 8.24679 9.51141 8.2463 9.44262C8.24549 9.30111 8.24486 9.15959 8.2444 9.01808C8.2434 8.80164 8.24082 8.58524 8.23824 8.36881C8.23765 8.23145 8.23715 8.09408 8.23675 7.95671C8.23521 7.85956 8.23521 7.85956 8.23364 7.76045C8.2349 7.31622 8.2349 7.31622 8.35847 7.08337C8.64127 6.85602 8.9369 6.8407 9.28982 6.83947ZM9.49217 8.08603C9.49217 8.53076 9.49217 8.97548 9.49217 9.43369C10.5363 9.43369 11.5804 9.43369 12.6562 9.43369C12.6562 8.98896 12.6562 8.54423 12.6562 8.08603C11.6121 8.08603 10.5679 8.08603 9.49217 8.08603Z" fill="#2A5AAE"/>
</g>
<defs>
<clipPath id="clip0_395_112">
<rect width="28.0664" height="30" fill="white"/>
</clipPath>
</defs>
</svg>
