<svg width="28" height="30" viewBox="0 0 28 30" fill="none" xmlns="http://www.w3.org/2000/svg">
<path d="M14.375 3.125V2" stroke="black" stroke-width="3.375" stroke-linecap="round" stroke-linejoin="round"/>
<path d="M5.65625 6.21875L4.8125 5.375" stroke="black" stroke-width="3.375" stroke-linecap="round" stroke-linejoin="round"/>
<path d="M15.6308 18.2241L18.4561 23.0881" stroke="black" stroke-width="2" stroke-linecap="round" stroke-linejoin="round"/>
<path d="M13.2454 14.1168C12.1708 14.741 11.8057 16.118 12.4299 17.1925C13.054 18.267 14.431 18.6322 15.5056 18.008C16.5801 17.3839 16.9452 16.0069 16.3211 14.9323C15.6969 13.8578 14.3199 13.4927 13.2454 14.1168Z" stroke="black" stroke-width="2" stroke-miterlimit="10"/>
<path d="M14.375 3.68726C11.9275 3.68726 9.53488 4.41304 7.49982 5.77282C5.46477 7.1326 3.87863 9.06531 2.942 11.3265C2.00536 13.5878 1.7603 16.076 2.23779 18.4765C2.71528 20.877 3.89388 23.082 5.62456 24.8127C7.35523 26.5434 9.56025 27.722 11.9608 28.1995C14.3613 28.677 16.8495 28.4319 19.1107 27.4953C21.3719 26.5586 23.3047 24.9725 24.6644 22.9374C26.0242 20.9024 26.75 18.5098 26.75 16.0623C26.75 12.7802 25.4462 9.63257 23.1255 7.31181C20.8047 4.99105 17.6571 3.68726 14.375 3.68726Z" stroke="black" stroke-width="2.25" stroke-miterlimit="10"/>
</svg>
