<svg width="28" height="30" viewBox="0 0 28 30" fill="none" xmlns="http://www.w3.org/2000/svg">
<path d="M14.375 3.125V2" stroke="black" stroke-width="3.375" stroke-linecap="round" stroke-linejoin="round"/>
<path d="M5.65625 6.21875L4.8125 5.375" stroke="black" stroke-width="3.375" stroke-linecap="round" stroke-linejoin="round"/>
<path d="M13.1192 18.2241L10.2939 23.0881" stroke="black" stroke-width="2" stroke-linecap="round" stroke-linejoin="round"/>
<path d="M15.505 14.1169C14.4305 13.4927 13.0535 13.8579 12.4293 14.9324C11.8052 16.0069 12.1703 17.384 13.2448 18.0081C14.3194 18.6322 15.6964 18.2671 16.3205 17.1926C16.9447 16.1181 16.5795 14.741 15.505 14.1169Z" stroke="black" stroke-width="2" stroke-miterlimit="10"/>
<path d="M14.375 3.6875C11.9275 3.6875 9.53488 4.41328 7.49982 5.77306C5.46477 7.13285 3.87863 9.06556 2.942 11.3268C2.00536 13.588 1.7603 16.0762 2.23779 18.4767C2.71528 20.8773 3.89388 23.0823 5.62456 24.8129C7.35523 26.5436 9.56025 27.7222 11.9608 28.1997C14.3613 28.6772 16.8495 28.4321 19.1107 27.4955C21.3719 26.5589 23.3047 24.9727 24.6644 22.9377C26.0242 20.9026 26.75 18.51 26.75 16.0625C26.75 12.7804 25.4462 9.63282 23.1255 7.31205C20.8047 4.99129 17.6571 3.6875 14.375 3.6875Z" stroke="black" stroke-width="2.25" stroke-miterlimit="10"/>
</svg>
