<svg width="28" height="30" viewBox="0 0 28 30" fill="none" xmlns="http://www.w3.org/2000/svg">
<path d="M14.375 3.125V2" stroke="black" stroke-width="3.375" stroke-linecap="round" stroke-linejoin="round"/>
<path d="M5.65625 6.21875L4.8125 5.375" stroke="black" stroke-width="3.375" stroke-linecap="round" stroke-linejoin="round"/>
<path d="M15.646 13.9101L18.5068 9.06689" stroke="black" stroke-width="2" stroke-linecap="round" stroke-linejoin="round"/>
<path d="M13.2306 17.9998C14.3006 18.6318 15.6802 18.2768 16.3122 17.2069C16.9442 16.137 16.5892 14.7573 15.5193 14.1253C14.4494 13.4933 13.0697 13.8483 12.4377 14.9182C11.8057 15.9882 12.1607 17.3678 13.2306 17.9998Z" stroke="black" stroke-width="2" stroke-miterlimit="10"/>
<path d="M14.375 3.6875C11.9275 3.6875 9.53488 4.41328 7.49982 5.77306C5.46477 7.13285 3.87863 9.06556 2.942 11.3268C2.00536 13.588 1.7603 16.0762 2.23779 18.4767C2.71528 20.8773 3.89388 23.0823 5.62456 24.8129C7.35523 26.5436 9.56025 27.7222 11.9608 28.1997C14.3613 28.6772 16.8495 28.4321 19.1107 27.4955C21.3719 26.5589 23.3047 24.9727 24.6644 22.9377C26.0242 20.9026 26.75 18.51 26.75 16.0625C26.75 12.7804 25.4462 9.63282 23.1255 7.31205C20.8047 4.99129 17.6571 3.6875 14.375 3.6875Z" stroke="black" stroke-width="2.25" stroke-miterlimit="10"/>
</svg>
