<svg width="24" height="24" viewBox="0 0 24 24" fill="none" xmlns="http://www.w3.org/2000/svg">
<g clip-path="url(#clip0_178_1093)">
<path d="M12 24L15 19.5H13.5V16.5H10.5V19.5H9L12 24ZM22.5 13.5V1.5H1.5V13.5H22.5ZM24 15H0V0H24V15Z" fill="#2A5AAE"/>
<path d="M12 12C12.5909 12 13.1761 11.8836 13.7221 11.6575C14.268 11.4313 14.7641 11.0998 15.182 10.682C15.5998 10.2641 15.9313 9.76804 16.1575 9.22208C16.3836 8.67611 16.5 8.09095 16.5 7.5C16.5 6.90905 16.3836 6.32389 16.1575 5.77792C15.9313 5.23196 15.5998 4.73588 15.182 4.31802C14.7641 3.90016 14.268 3.56869 13.7221 3.34254C13.1761 3.1164 12.5909 3 12 3H19.5V4.5H21V10.5H19.5V12H12ZM7.5 7.5C7.5 8.69347 7.97411 9.83807 8.81802 10.682C9.66193 11.5259 10.8065 12 12 12H4.5V10.5H3V4.5H4.5V3H12C10.8065 3 9.66193 3.4741 8.81802 4.31802C7.97411 5.16193 7.5 6.30653 7.5 7.5Z" fill="#2A5AAE"/>
</g>
<defs>
<clipPath id="clip0_178_1093">
<rect width="24" height="24" fill="white" transform="matrix(1 0 0 -1 0 24)"/>
</clipPath>
</defs>
</svg>
